<?xml version="1.0" standalone="no"?>
<!DOCTYPE svg PUBLIC "-//W3C//DTD SVG 20010904//EN"
 "http://www.w3.org/TR/2001/REC-SVG-20010904/DTD/svg10.dtd">
<svg version="1.0" xmlns="http://www.w3.org/2000/svg"
 width="700.000000pt" height="700.000000pt" viewBox="0 0 700.000000 700.000000"
 preserveAspectRatio="xMidYMid meet">
<metadata>
Created by potrace 1.14, written by Peter Selinger 2001-2017
</metadata>
<g transform="translate(0.000000,700.000000) scale(0.100000,-0.100000)"
fill="#000000" stroke="none">
<path d="M2597 5924 c-1 -1 -56 -4 -122 -7 -70 -4 -153 -15 -200 -27 -138 -37
-325 -136 -325 -174 0 -7 -16 -13 -37 -14 -44 -3 -172 -55 -201 -82 -12 -12
-18 -27 -15 -38 4 -15 -1 -19 -20 -19 -37 0 -88 -36 -148 -101 -57 -62 -88
-121 -89 -165 0 -20 -7 -30 -24 -37 -31 -11 -40 -41 -70 -224 -14 -82 -30
-152 -35 -156 -6 -3 -13 -42 -16 -86 -3 -43 -10 -104 -16 -134 -10 -49 -7
-226 5 -300 3 -14 7 -47 11 -75 8 -67 14 -91 35 -151 10 -28 21 -71 25 -95 3
-24 8 -55 10 -69 3 -14 7 -56 10 -95 11 -133 24 -258 35 -329 10 -67 5 -81
-51 -121 -53 -38 -60 -59 -34 -99 18 -27 23 -68 29 -263 3 -77 10 -172 17
-210 13 -79 121 -378 153 -426 12 -17 48 -48 81 -68 32 -19 67 -47 78 -61 10
-14 36 -92 57 -174 85 -334 175 -525 333 -706 87 -100 220 -276 256 -339 29
-51 29 -53 11 -66 -11 -8 -86 -38 -167 -67 -284 -103 -668 -254 -1218 -478
-414 -169 -602 -279 -677 -397 -57 -90 -20 -97 61 -13 68 71 173 147 232 167
24 9 55 27 69 40 29 28 97 58 111 50 5 -4 12 1 15 9 4 10 18 16 35 16 16 0 29
4 29 8 0 13 37 28 131 53 46 12 120 40 163 61 94 47 266 115 312 124 19 3 34
10 34 15 0 11 61 42 129 64 30 10 68 26 85 35 17 10 55 23 84 30 28 7 52 15
52 20 0 10 348 123 385 124 17 1 41 11 55 23 13 13 31 23 40 23 9 0 21 5 27
11 15 15 30 5 35 -26 7 -32 3 -35 -33 -25 -38 11 -38 -5 1 -19 39 -13 45 -32
26 -70 -22 -41 -20 -44 9 -25 30 20 44 11 27 -17 -7 -11 -15 -39 -18 -62 -16
-134 -29 -191 -74 -326 -67 -202 -98 -351 -71 -351 10 0 39 79 82 225 17 61
45 139 60 174 37 82 50 165 51 323 0 111 -3 133 -21 168 -27 52 -28 90 -2 90
29 0 36 32 12 52 -12 9 -21 24 -21 35 0 10 -11 31 -25 47 -27 32 -32 56 -12
56 19 0 37 -21 37 -43 0 -12 6 -17 17 -15 29 5 25 26 -11 59 -58 52 -40 69 26
24 38 -26 45 -24 44 10 -1 13 -7 19 -17 17 -9 -1 -29 4 -45 13 -27 14 -30 13
-56 -12 -33 -32 -63 -25 -54 11 5 20 0 28 -28 45 -36 22 -46 38 -39 59 8 22
23 13 23 -15 0 -19 3 -24 11 -16 6 6 9 28 7 49 -3 42 -8 44 -70 28 -24 -5 -28
-3 -28 14 0 12 -8 27 -18 34 -9 7 -18 26 -19 42 -3 65 -52 130 -83 111 -15 -9
9 -48 26 -41 8 3 14 1 14 -5 0 -24 -34 -21 -57 5 -23 28 -32 76 -12 76 20 0
-1 70 -67 233 -37 89 -79 198 -95 242 l-28 80 4 -68 c3 -63 -5 -87 -19 -51 -4
10 -4 85 -1 168 7 175 7 197 -1 205 -13 14 -24 -31 -24 -106 0 -77 -8 -100
-26 -71 -4 6 -6 28 -6 49 2 32 -2 38 -20 41 -26 3 -38 38 -14 38 18 0 46 27
46 45 0 8 -7 11 -20 8 -16 -4 -20 0 -20 18 0 32 -15 53 -32 47 -10 -4 -14 3
-14 26 0 18 -11 47 -24 66 l-24 34 24 -17 c54 -38 68 -8 19 39 -17 16 -37 43
-45 59 -8 17 -25 45 -39 64 -16 22 -23 42 -20 55 4 16 -2 12 -25 -14 -24 -27
-27 -36 -15 -38 26 -6 92 -156 91 -207 -1 -27 -39 -32 -73 -9 -24 15 -27 15
-38 0 -10 -13 -14 -13 -22 -4 -14 20 -85 200 -80 205 3 2 21 -23 42 -56 36
-60 55 -76 55 -46 0 8 -22 57 -49 109 -44 87 -48 99 -46 158 2 55 7 100 21
172 8 46 27 87 37 84 25 -7 70 -121 75 -188 5 -65 16 -100 31 -100 13 0 56 88
48 96 -4 4 -14 -1 -23 -12 -14 -18 -14 -16 -8 26 4 25 13 62 20 83 8 22 11 43
8 48 -10 16 -23 9 -26 -13 -4 -31 -22 -29 -26 2 -3 17 4 31 21 45 28 22 31 40
42 219 3 49 12 104 21 122 18 37 13 60 -17 92 -25 27 -60 32 -38 5 24 -28 17
-187 -10 -248 -12 -27 -25 -74 -27 -103 -10 -107 -12 -107 -103 -14 -95 98
-105 122 -67 160 32 33 43 24 76 -63 24 -62 45 -93 56 -83 14 14 4 117 -15
154 -12 26 -21 68 -24 124 -3 47 -11 98 -18 114 -8 17 -9 30 -3 34 5 4 9 45 9
92 0 75 3 91 28 133 27 46 26 52 -10 48 -20 -3 -51 18 -64 40 -9 18 -7 27 10
50 23 30 20 45 -11 67 -22 16 -48 64 -55 101 -2 14 -11 33 -19 42 -25 27 -15
30 29 8 l42 -21 -42 40 c-67 66 -68 156 -2 238 17 22 35 49 40 61 4 12 18 23
31 25 13 2 21 8 18 13 -7 15 -30 7 -77 -26 -45 -31 -59 -26 -43 15 5 15 12 61
15 104 3 42 8 90 12 107 l5 29 20 -24 20 -25 -5 41 c-4 28 -1 48 9 62 7 11 12
26 9 34 -3 7 2 22 11 33 15 20 15 20 11 -2 -6 -29 -3 -29 39 5 40 32 43 41 9
34 -35 -6 -33 24 2 33 64 16 252 -6 260 -31 2 -7 -29 -9 -92 -6 -61 2 -95 0
-95 -6 0 -15 36 -25 89 -24 25 1 63 -4 84 -10 34 -10 40 -10 49 5 14 26 32 20
45 -13 6 -16 26 -38 43 -47 53 -30 113 -71 152 -104 53 -46 58 -29 9 29 -66
79 -53 98 22 32 57 -51 68 -52 19 -2 -48 50 -78 65 -124 64 -42 -2 -45 3 -22
36 18 26 13 27 -27 6 -38 -19 -44 -14 -27 23 8 15 12 38 10 51 -3 23 -34 46
-46 35 -11 -11 -6 -40 9 -53 8 -7 15 -19 15 -26 0 -12 -4 -12 -29 0 -29 16
-41 34 -41 66 0 22 -93 69 -149 76 -31 4 -27 0 35 -30 40 -19 75 -39 79 -45
16 -27 -130 0 -182 34 -20 13 -26 13 -58 -2 -26 -12 -38 -14 -46 -6 -8 8 0 17
30 33 23 11 51 36 62 55 11 19 33 38 51 44 44 16 47 13 13 -14 -37 -31 -27
-42 19 -20 41 20 67 46 50 52 -6 2 -20 10 -30 18 -18 13 -18 15 10 44 16 16
38 31 50 33 13 2 21 10 21 22 0 12 12 22 35 30 25 8 44 25 65 58 17 26 38 50
48 54 10 3 17 11 16 17 -1 7 -1 18 0 24 1 17 81 57 81 42 0 -20 -37 -73 -75
-107 -19 -18 -35 -43 -36 -55 -1 -12 -2 -42 -4 -67 -4 -66 10 -93 59 -118 40
-19 56 -20 56 -2 0 3 -20 27 -45 52 -51 53 -60 80 -17 51 43 -28 65 -46 91
-75 19 -22 21 -30 12 -41 -6 -8 -9 -22 -5 -31 8 -20 9 -20 -58 2 -57 19 -89
21 -145 8 -53 -12 -38 -23 27 -18 48 4 61 1 66 -12 3 -9 17 -16 31 -16 39 0
93 -30 93 -51 0 -12 7 -19 19 -19 20 0 37 -17 28 -26 -3 -3 -56 15 -118 40
-112 44 -189 63 -189 48 0 -4 43 -32 94 -61 67 -38 96 -60 98 -75 2 -16 11
-22 41 -24 29 -3 37 -7 33 -18 -4 -10 6 -22 29 -35 22 -13 35 -29 35 -41 0
-17 5 -19 25 -14 19 5 25 3 25 -11 0 -9 16 -31 36 -49 35 -32 35 -33 18 -58
-16 -26 -16 -26 10 -26 43 0 79 -99 40 -114 -28 -11 -87 38 -79 64 6 18 -59
90 -82 90 -22 0 -15 -14 29 -53 l43 -38 -35 17 c-19 9 -77 45 -128 80 -52 35
-98 64 -104 64 -5 0 -6 -9 -3 -20 9 -27 -19 -27 -48 0 -12 11 -35 24 -52 29
-25 6 -31 4 -33 -11 -4 -22 -30 -24 -39 -2 -7 20 -81 54 -100 47 -20 -8 -11
-15 86 -68 46 -26 96 -54 110 -63 22 -13 21 -10 -8 21 -39 41 -37 56 6 34 38
-21 73 -55 73 -72 0 -8 3 -15 8 -16 4 0 23 -2 42 -4 82 -7 253 -101 270 -148
9 -26 11 -27 26 -13 22 23 49 36 78 38 30 3 32 7 10 23 -15 11 -14 14 7 34 13
12 39 26 59 32 50 15 83 42 85 70 2 34 30 35 67 4 39 -33 72 -30 76 6 2 21 -2
28 -21 33 -39 9 -260 236 -230 236 5 0 39 -27 76 -60 69 -61 101 -76 138 -67
14 4 19 2 16 -7 -3 -7 15 -37 39 -67 25 -30 55 -75 67 -101 21 -47 49 -68 89
-68 20 0 20 1 5 18 -25 28 -21 31 33 25 28 -3 50 -1 50 3 0 5 -17 27 -38 49
-95 101 -206 244 -238 306 -41 83 -156 254 -242 362 -126 159 -46 99 146 -107
74 -80 124 -150 67 -94 -29 29 -52 29 -36 0 5 -9 32 -48 61 -87 28 -38 54 -83
57 -98 4 -19 10 -26 20 -23 19 8 64 -39 57 -58 -3 -9 -1 -16 5 -16 6 0 19 -17
30 -38 11 -21 50 -65 88 -96 37 -32 73 -67 79 -78 5 -10 13 -16 16 -12 4 3 20
-2 37 -12 24 -14 34 -15 42 -7 16 16 -2 38 -51 63 -70 36 -150 113 -150 146 0
12 -14 39 -31 60 -50 62 -71 99 -179 311 -56 111 -113 211 -126 224 -26 25
-32 15 -9 -15 8 -11 15 -31 15 -44 l0 -23 -31 22 c-27 19 -30 26 -24 53 4 17
7 52 6 79 -1 43 1 47 23 47 27 0 69 -40 49 -47 -22 -8 -15 -24 47 -105 33 -44
60 -84 60 -88 0 -5 12 -10 28 -12 27 -3 29 -6 31 -64 0 -17 11 -43 22 -58 26
-34 34 -28 15 9 -23 44 -1 61 36 28 35 -32 28 -5 -12 46 -23 29 -46 65 -52 82
-8 25 -13 27 -30 18 -17 -9 -25 -6 -49 17 -35 34 -69 101 -69 136 0 17 -15 42
-46 73 -49 50 -61 53 -45 11 12 -29 5 -32 -24 -11 -14 11 -32 13 -66 9 -27 -4
-76 -7 -111 -8 -42 -1 -63 -5 -63 -13 0 -20 -17 -30 -74 -47 -74 -22 -81 -20
-46 10 22 19 24 24 10 19 -21 -7 -91 -21 -138 -29 -35 -6 -36 -7 -167 -126
-154 -140 -169 -155 -185 -194 -11 -26 -21 -36 -38 -36 -56 0 -146 -104 -133
-154 4 -15 -4 -38 -23 -68 -35 -54 -52 -68 -46 -36 13 66 20 88 45 145 41 90
82 146 192 259 54 56 98 105 98 108 0 16 -22 0 -100 -70 -47 -42 -105 -90
-130 -107 l-45 -31 48 53 c26 29 50 63 53 75 3 12 21 29 42 38 20 10 62 31 92
48 30 16 66 29 79 27 18 -1 29 6 40 27 10 17 39 41 72 57 68 35 230 76 329 84
126 9 195 17 199 21 28 27 -286 25 -372 -2 -19 -6 -20 -5 -8 9 17 21 66 34
151 42 43 4 69 11 77 22 12 15 17 15 73 -2 33 -10 63 -15 67 -11 11 11 -15 24
-79 43 -32 9 -58 20 -58 25 0 4 3 7 8 6 4 -1 34 2 66 7 80 11 152 12 206 4 25
-4 72 -10 105 -13 32 -4 61 -9 63 -11 10 -9 -51 -25 -76 -19 -26 5 -26 5 -8
-10 11 -9 36 -16 56 -16 48 0 104 -38 94 -64 -2 -6 13 -19 34 -29 93 -44 430
-342 562 -497 30 -36 68 -78 83 -95 40 -43 62 -85 44 -85 -8 0 -22 9 -32 20
-10 11 -28 20 -41 20 -14 0 -25 8 -29 21 -6 19 -8 20 -26 3 -25 -23 -24 -41 3
-55 l22 -12 -23 -9 c-23 -8 -22 -9 21 -56 23 -27 65 -77 92 -112 l49 -63 -84
5 c-49 2 -97 11 -117 20 -30 15 -32 15 -32 -1 0 -10 9 -26 20 -36 12 -10 19
-24 16 -31 -6 -15 15 -24 52 -24 l27 1 -29 25 c-15 14 -27 27 -25 29 10 9 167
-28 191 -46 29 -20 88 -37 88 -24 0 4 -27 41 -60 82 -33 41 -60 79 -60 85 0 6
-25 37 -55 69 -90 94 -62 127 36 41 90 -80 116 -95 155 -90 34 4 36 3 32 -24
-4 -23 -2 -27 13 -23 11 4 26 -2 38 -14 11 -11 23 -16 26 -11 5 8 -44 73 -111
150 -12 14 -32 36 -44 50 l-21 25 5 -47 c3 -27 3 -48 1 -48 -10 0 -45 60 -49
84 -9 49 -100 159 -305 368 -119 120 -148 155 -139 163 15 16 323 -251 362
-314 38 -59 146 -158 183 -167 21 -6 23 -11 17 -36 -3 -18 -2 -28 3 -25 9 6
36 -9 92 -50 24 -17 24 -17 13 4 -22 40 -112 131 -137 137 -18 5 -25 13 -25
30 0 13 -10 36 -22 52 -52 66 -277 265 -325 287 -16 7 -23 19 -23 38 0 16 -14
43 -35 69 -19 23 -35 44 -35 46 0 14 32 -14 187 -168 160 -159 212 -199 168
-131 -10 15 -23 33 -29 39 -6 7 -45 47 -87 90 -41 44 -88 96 -103 116 -27 36
-107 94 -211 153 l-50 28 36 -39 c20 -21 43 -50 53 -64 20 -31 21 -70 1 -70
-37 0 -145 148 -145 199 0 22 -2 23 -17 9 -35 -29 -46 -33 -34 -9 11 19 10 20
-19 14 -23 -4 -30 -2 -28 8 2 9 -7 15 -24 17 -22 3 -28 -1 -28 -15 0 -10 8
-25 18 -33 9 -9 55 -47 102 -86 92 -77 129 -114 113 -114 -5 0 -34 18 -63 40
-29 22 -58 40 -63 40 -14 0 -128 113 -137 135 -4 12 -3 26 4 34 8 10 3 10 -21
-2 -41 -22 -52 -21 -46 2 3 10 -3 31 -12 45 -20 30 -18 31 21 11 16 -8 54 -15
84 -15 100 0 265 -58 384 -134 98 -63 188 -103 172 -77 -11 17 -206 142 -261
166 -31 14 -53 29 -50 34 8 14 83 -14 150 -55 56 -33 57 -33 40 -8 -9 14 -15
27 -13 29 2 2 28 -3 58 -11 30 -8 65 -14 78 -14 17 0 22 -4 19 -15 -4 -8 -2
-17 2 -19 17 -11 81 -14 86 -5 10 15 34 10 76 -17 23 -14 57 -28 77 -31 l35
-6 -22 -18 c-20 -17 -25 -17 -69 -3 -26 9 -72 22 -103 30 -31 7 -76 23 -100
33 -31 14 -48 17 -62 10 -28 -15 -5 -36 59 -55 39 -11 54 -20 54 -33 0 -9 7
-26 15 -37 22 -29 18 -33 -21 -24 -31 7 -40 5 -67 -21 -21 -19 -27 -29 -17
-29 17 0 80 -62 123 -121 14 -20 40 -49 57 -65 16 -16 30 -33 30 -38 0 -24 83
-140 151 -211 41 -44 86 -99 100 -123 l23 -43 12 33 c17 46 17 94 -1 128 -18
35 -31 38 -40 10 -8 -25 -24 -27 -21 -2 4 20 -21 97 -42 132 -38 62 -85 97
-94 69 -2 -6 -28 18 -58 52 -30 35 -85 95 -122 133 -38 39 -68 74 -68 78 0 22
114 -58 225 -157 37 -33 81 -65 98 -71 23 -8 33 -21 42 -50 18 -62 56 -114 88
-121 29 -6 58 -48 49 -72 -3 -8 1 -12 9 -9 22 7 79 126 79 164 0 34 -16 46
-26 20 -7 -17 -34 -10 -34 9 0 6 9 20 20 30 19 18 23 18 74 2 29 -9 70 -17 92
-18 l39 -1 -50 -18 -50 -18 30 -12 c17 -7 58 -12 92 -12 35 0 61 -3 58 -8 -2
-4 10 -27 29 -51 18 -24 36 -54 40 -66 4 -11 18 -28 31 -37 28 -18 33 -36 10
-36 -25 0 -85 60 -85 85 0 27 -27 28 -42 2 -7 -14 4 -31 59 -85 94 -92 97 -96
82 -120 -10 -16 -7 -28 24 -78 31 -50 36 -64 29 -89 -16 -57 -2 -263 22 -333
7 -20 13 -76 14 -123 0 -47 5 -96 12 -108 9 -18 8 -27 -3 -45 -13 -19 -13 -27
-1 -55 17 -41 17 -41 -1 -41 -8 0 -16 -3 -16 -7 -8 -51 -7 -73 3 -79 7 -4 14
-2 16 4 8 24 32 11 52 -28 26 -51 26 -110 -1 -144 -22 -28 -55 -36 -46 -12 6
15 -49 136 -61 136 -4 0 -7 -15 -7 -32 0 -45 -19 -51 -23 -8 -5 63 -11 78 -37
84 -17 4 -25 13 -25 27 0 14 -5 19 -14 16 -21 -8 -25 1 -16 34 5 16 5 29 0 29
-13 0 -23 -64 -15 -99 4 -20 17 -37 35 -46 20 -11 33 -29 46 -67 17 -53 31
-71 46 -62 4 3 8 -4 8 -14 0 -11 11 -42 25 -69 25 -48 33 -76 35 -123 1 -24 1
-24 11 -5 6 11 22 36 35 55 12 19 26 55 29 80 9 61 30 83 72 77 28 -5 33 -3
33 14 0 10 -7 19 -15 19 -32 0 -78 152 -100 330 -2 19 -6 51 -9 70 -3 19 -8
67 -11 105 -3 39 -8 88 -10 110 -2 22 -7 72 -10 110 -24 288 -46 397 -105 520
-68 143 -135 215 -226 244 -51 17 -127 73 -247 183 -141 131 -245 216 -287
238 -102 52 -288 106 -395 115 -38 3 -86 8 -105 10 -76 9 -146 18 -163 21 -29
5 -355 22 -360 18z m973 -261 c18 -15 41 -28 51 -28 10 -1 27 -9 37 -18 19
-18 42 -23 42 -9 0 4 -7 18 -16 30 -9 13 -14 25 -11 28 12 13 235 -180 268
-233 19 -30 19 -83 -1 -83 -4 0 -22 29 -39 64 -29 59 -79 116 -102 116 -15 0
-10 -14 16 -50 14 -19 25 -46 25 -61 0 -14 14 -43 30 -64 17 -21 30 -43 30
-50 0 -6 13 -24 30 -40 26 -25 28 -29 13 -40 -10 -8 -14 -19 -10 -31 4 -12 -3
-8 -18 11 -33 39 -97 194 -91 218 4 18 4 18 -14 2 -21 -19 -20 -33 10 -111 28
-77 27 -94 -5 -64 -17 16 -25 34 -25 56 0 18 -4 35 -9 38 -5 4 -15 29 -22 56
-14 56 -31 61 -39 11 l-5 -33 -33 41 c-18 23 -69 71 -113 108 -76 62 -79 66
-63 84 21 23 4 50 -26 42 -22 -6 -26 7 -8 25 20 20 65 13 98 -15z m-1115 -13
c3 -5 1 -19 -5 -30 -6 -12 -13 -33 -15 -48 -1 -15 -3 -30 -4 -34 0 -5 -9 -8
-18 -8 -29 0 -182 50 -189 62 -4 7 -3 8 4 4 7 -4 49 -9 94 -11 79 -3 115 6
102 26 -7 12 5 49 16 49 5 0 12 -4 15 -10z m-97 -17 c-10 -2 -28 -2 -40 0 -13
2 -5 4 17 4 22 1 32 -1 23 -4z m833 -89 c21 -24 22 -26 3 -16 -25 13 -50 42
-37 42 5 0 20 -12 34 -26z m-963 -34 c1 0 2 -6 2 -13 0 -12 47 -67 83 -96 32
-26 17 0 -29 49 -51 55 -41 66 18 21 61 -46 203 -234 256 -338 26 -49 42 -73
143 -213 109 -150 118 -172 83 -207 -21 -21 -27 -15 -20 21 5 28 2 40 -21 67
-16 18 -46 60 -68 93 -22 34 -49 63 -60 64 -33 6 -64 41 -63 73 1 23 -12 43
-60 92 -33 34 -99 112 -145 172 -47 61 -98 122 -113 136 -35 33 -102 69 -127
69 -11 0 -15 5 -11 11 5 9 83 8 132 -1z m-114 -61 c28 -35 59 -65 77 -71 35
-12 141 -134 166 -189 9 -21 36 -54 60 -74 23 -20 43 -42 43 -49 0 -8 18 -32
40 -54 42 -42 57 -80 18 -46 -51 44 -138 142 -201 228 -77 103 -106 136 -120
136 -5 0 1 -16 13 -36 17 -26 20 -38 11 -47 -15 -15 -64 31 -57 56 3 11 0 17
-7 14 -19 -7 -47 12 -47 32 0 10 -3 21 -7 25 -5 4 -8 11 -8 14 -1 4 -9 21 -18
37 l-18 30 4 -28 c5 -35 -9 -44 -34 -21 -27 24 -24 59 7 83 15 12 28 21 29 21
1 0 23 -27 49 -61z m66 -18 c13 -25 13 -34 0 -26 -16 10 -32 45 -21 45 6 0 15
-9 21 -19z m-184 -26 c26 -14 57 -25 69 -25 17 0 24 -7 29 -31 3 -17 32 -70
64 -118 33 -47 65 -97 72 -110 12 -24 12 -24 -25 -18 l-38 6 26 -27 c22 -23
67 -111 90 -175 4 -10 11 -16 16 -12 6 3 4 22 -5 47 -8 23 -12 48 -9 56 8 22
30 8 32 -22 1 -16 9 -36 18 -47 10 -10 14 -23 10 -29 -4 -7 2 -18 14 -26 12
-8 21 -23 21 -34 0 -10 18 -36 40 -57 36 -33 39 -39 25 -50 -9 -6 -32 -9 -51
-7 -28 3 -34 1 -34 -14 0 -19 -18 -42 -33 -42 -5 0 -6 11 -3 24 4 18 -1 33
-20 56 -16 18 -28 47 -30 68 -2 20 -7 48 -10 62 l-6 25 -19 -24 c-22 -27 -22
-27 -10 17 8 27 7 34 -9 42 -10 5 -26 32 -35 59 -9 27 -33 69 -54 93 -43 48
-61 79 -61 102 0 27 25 18 60 -21 40 -44 54 -28 17 20 -14 18 -62 70 -107 117
-74 78 -108 120 -96 120 3 0 26 -11 52 -25z m1718 -175 c9 -22 22 -40 30 -40
17 0 25 -18 18 -42 -7 -30 -19 -21 -56 47 -41 75 -41 75 -22 75 8 0 21 -18 30
-40z m-1391 -113 c26 -38 47 -74 47 -81 0 -8 21 -40 46 -72 49 -62 96 -152 88
-166 -9 -14 -44 17 -75 68 -17 27 -41 60 -54 74 -12 14 -29 38 -36 55 -10 21
-25 32 -54 41 -24 6 -41 18 -43 28 -4 16 -2 16 28 1 18 -9 34 -14 37 -12 2 3
-14 36 -36 73 -41 68 -51 109 -29 116 7 3 18 -9 24 -26 5 -17 31 -62 57 -99z
m1216 97 c54 -35 63 -61 13 -35 -40 21 -82 61 -63 61 6 0 29 -12 50 -26z m311
-143 c0 -3 -4 -12 -9 -20 -8 -12 -12 -13 -25 -2 -12 10 -13 17 -5 27 10 12 39
9 39 -5z m-2387 -1185 c3 -8 -1 -22 -8 -33 -14 -18 -16 -17 -20 25 -2 24 20
31 28 8z m-69 -799 c2 -14 -1 -31 -5 -39 -6 -8 -9 3 -9 31 0 46 10 51 14 8z
m288 -620 c25 -32 22 -56 -9 -68 -19 -7 -35 -6 -55 2 -35 14 -80 66 -76 87 8
40 104 25 140 -21z m195 -538 c26 -79 36 -139 23 -139 -6 0 -10 13 -10 29 0
16 -7 35 -17 42 -22 19 -43 72 -43 110 0 49 22 30 47 -42z m107 -221 c15 -45
13 -78 -4 -78 -12 0 -20 28 -26 89 -7 66 6 61 30 -11z"/>
<path d="M3616 5595 c-4 -10 -14 -13 -36 -9 -41 9 -38 0 16 -36 45 -32 68 -34
44 -5 -9 11 -10 19 -3 26 11 11 73 -52 73 -76 0 -7 9 -17 20 -20 11 -3 23 -17
26 -31 7 -29 20 -31 34 -4 12 22 8 33 -24 68 -17 19 -18 26 -8 43 15 23 1 49
-25 49 -11 0 -13 -7 -9 -26 6 -23 5 -24 -16 -13 -13 7 -34 20 -47 30 -29 23
-37 24 -45 4z"/>
<path d="M2360 5850 c-8 -5 7 -20 44 -45 31 -20 59 -41 62 -46 3 -5 10 -9 16
-9 7 0 1 12 -13 28 -55 60 -55 59 11 49 32 -5 67 -6 77 -3 17 7 17 8 -1 18
-23 13 -178 19 -196 8z"/>
<path d="M2530 5758 c0 -13 7 -33 15 -44 14 -18 14 -18 8 4 -3 12 -1 22 4 22
19 0 299 -201 365 -263 8 -7 47 -41 88 -77 41 -35 82 -72 90 -80 30 -32 87
-70 110 -73 17 -3 24 -11 26 -31 3 -32 45 -90 76 -107 46 -25 41 44 -9 110
-95 125 -233 231 -233 179 0 -7 -9 1 -19 18 -10 17 -50 54 -89 82 -39 28 -73
61 -77 74 -10 32 -33 57 -84 90 -56 35 -77 37 -60 6 11 -21 11 -22 -4 -10 -9
8 -17 30 -19 50 -3 35 -5 38 -52 49 -27 7 -69 15 -93 19 -41 6 -43 5 -43 -18z
m309 -149 c35 -29 18 -34 -28 -8 -49 27 -64 53 -23 38 15 -5 38 -19 51 -30z
m332 -290 c12 -17 19 -32 17 -35 -7 -6 -98 84 -98 97 0 16 56 -27 81 -62z
m111 -121 c31 -31 52 -58 44 -58 -7 0 -76 69 -76 76 0 9 10 3 32 -18z"/>
<path d="M2640 5596 c5 -13 6 -27 3 -30 -4 -3 2 -6 13 -6 24 -1 46 -17 69 -55
11 -16 52 -73 92 -127 l73 -96 73 -12 c74 -12 122 -34 112 -50 -4 -6 -24 -7
-46 -4 -32 5 -39 4 -39 -9 0 -10 14 -20 39 -27 46 -12 119 -86 127 -130 6 -25
14 -31 58 -44 28 -8 60 -22 71 -31 l20 -16 -20 4 c-11 3 -63 16 -115 31 l-95
25 30 -24 c39 -33 92 -57 128 -60 16 -2 33 -8 37 -15 4 -7 16 -10 26 -6 11 3
25 2 32 -3 11 -7 9 -13 -8 -29 -22 -20 -22 -20 -2 -31 31 -17 67 -13 93 9 13
11 20 20 14 19 -38 -5 -54 3 -64 33 -6 18 -21 42 -32 54 -17 18 -23 37 -28 86
-2 15 -103 107 -135 122 -20 9 -36 26 -40 40 -13 53 -211 236 -238 220 -16
-10 51 -92 98 -120 15 -10 17 -14 7 -25 -11 -10 -18 -8 -42 15 -16 16 -34 25
-40 22 -7 -5 -11 2 -11 16 0 13 -13 39 -30 58 -32 39 -38 55 -15 46 24 -9 17
13 -12 40 -37 34 -187 134 -201 134 -8 0 -9 -8 -2 -24z m589 -512 c29 -31 49
-59 46 -63 -6 -6 -18 7 -87 88 -45 54 -13 34 41 -25z"/>
<path d="M1851 5308 c0 -31 3 -37 8 -24 7 18 3 66 -5 66 -2 0 -4 -19 -3 -42z"/>
<path d="M1791 5302 c-15 -29 -14 -52 3 -52 19 0 30 35 18 56 -9 16 -11 15
-21 -4z"/>
<path d="M2896 5221 c-6 -10 44 -34 53 -26 3 4 -3 13 -13 21 -23 16 -33 18
-40 5z"/>
<path d="M4156 5221 c-6 -10 44 -34 53 -26 3 4 -3 13 -13 21 -23 16 -33 18
-40 5z"/>
<path d="M2782 5198 c-19 -19 -15 -32 38 -110 56 -82 79 -109 94 -107 29 3 37
-2 34 -23 -2 -12 -9 -23 -16 -26 -11 -3 -12 0 -3 17 10 17 9 20 -4 15 -32 -13
-3 -64 66 -118 44 -35 129 -72 129 -57 0 16 -42 51 -61 51 -26 0 -76 29 -84
47 -7 21 26 29 37 10 5 -9 19 -16 32 -15 13 1 48 -14 79 -36 31 -22 63 -36 73
-34 16 4 15 7 -8 18 -24 12 -26 14 -11 25 14 10 11 14 -19 33 -20 12 -41 22
-47 22 -25 0 -75 33 -152 102 -100 88 -169 172 -145 176 25 5 75 -36 83 -68 6
-23 11 -27 23 -20 13 8 13 13 0 37 -31 55 -109 90 -138 61z"/>
<path d="M3998 5143 c-11 -3 -18 -14 -18 -28 0 -14 -13 -32 -35 -49 -27 -21
-35 -34 -35 -59 0 -18 -7 -41 -15 -51 -8 -11 -15 -30 -15 -43 0 -18 -6 -23
-27 -24 l-28 -1 26 -11 c38 -17 58 -37 53 -51 -3 -7 10 -17 30 -24 19 -7 58
-35 87 -62 30 -27 60 -50 67 -50 7 0 30 -11 52 -25 22 -14 40 -23 40 -20 0 14
-89 87 -115 93 -30 8 -79 67 -70 82 7 11 42 1 56 -16 19 -23 31 -16 15 8 -9
12 -16 30 -16 40 0 10 -22 43 -50 73 -48 53 -62 84 -40 86 6 1 15 3 20 4 6 1
16 3 23 4 6 1 1 10 -13 20 l-25 19 28 7 c15 4 41 5 57 3 33 -5 32 -1 -2 17
-16 8 -22 19 -21 38 1 15 -1 26 -5 26 -4 -1 -15 -3 -24 -6z m-7 -246 c42 -28
43 -41 2 -45 -34 -3 -73 25 -73 53 0 22 32 18 71 -8z"/>
<path d="M2998 5123 c-24 -6 -22 -15 6 -35 24 -17 139 -52 131 -39 -2 4 -22
16 -45 26 -22 10 -40 22 -40 26 0 13 -33 26 -52 22z"/>
<path d="M4120 5110 c6 -11 15 -20 20 -20 6 0 10 9 10 20 0 13 -7 20 -20 20
-18 0 -19 -3 -10 -20z"/>
<path d="M2968 5051 c18 -17 37 -31 43 -31 18 0 -11 30 -45 46 l-31 15 33 -30z"/>
<path d="M4130 5031 c0 -5 14 -14 30 -20 31 -10 39 -4 18 17 -14 14 -48 16
-48 3z"/>
<path d="M4230 5012 c0 -4 19 -20 41 -36 33 -23 39 -25 31 -9 -16 29 -72 65
-72 45z"/>
<path d="M4023 5003 c-24 -9 -13 -30 32 -62 25 -18 53 -45 62 -59 9 -15 40
-52 69 -83 61 -65 114 -145 114 -171 0 -26 -25 -22 -49 8 l-21 27 0 -26 c0
-29 19 -77 30 -77 4 0 24 18 43 39 37 41 54 93 43 135 -6 25 -55 90 -62 83 -3
-2 9 -33 25 -68 17 -34 28 -65 25 -68 -7 -7 -60 54 -80 92 -12 23 -13 35 -3
64 9 29 9 38 -4 50 -19 20 -47 10 -47 -16 0 -27 -15 -34 -40 -21 -16 8 -19 15
-11 24 12 14 -9 38 -62 71 -15 10 -30 28 -33 41 -6 24 -10 26 -31 17z"/>
<path d="M1540 4942 c0 -37 33 -46 107 -28 40 9 60 31 30 32 -12 0 -48 4 -79
8 -54 8 -58 7 -58 -12z"/>
<path d="M4274 4918 c-6 -10 47 -60 55 -52 7 7 -21 53 -35 58 -7 3 -16 0 -20
-6z"/>
<path d="M1790 4898 c56 -26 108 -39 115 -28 7 11 -99 50 -133 49 -24 -1 -22
-3 18 -21z"/>
<path d="M1465 4890 c3 -5 15 -10 26 -10 10 0 19 5 19 10 0 6 -12 10 -26 10
-14 0 -23 -4 -19 -10z"/>
<path d="M1480 4835 c19 -7 58 -13 85 -13 l50 0 -30 13 c-16 8 -55 14 -85 14
l-55 -1 35 -13z"/>
<path d="M1654 4796 c15 -13 78 -49 140 -81 108 -56 144 -80 135 -89 -2 -3
-35 8 -72 24 -56 23 -69 26 -74 14 -3 -8 0 -20 6 -28 8 -10 6 -17 -9 -31 -11
-10 -18 -21 -15 -25 2 -4 52 -5 110 -3 86 3 110 1 134 -13 32 -19 81 -13 81
11 0 17 -57 57 -165 114 -78 42 -279 131 -293 131 -4 -1 6 -11 22 -24z"/>
<path d="M1510 4773 c0 -3 8 -15 17 -25 9 -11 17 -31 18 -46 0 -29 48 -62 120
-84 64 -18 75 -19 82 -2 8 23 -15 60 -57 89 -42 29 -55 32 -46 9 7 -17 2 -15
-65 33 -44 31 -69 41 -69 26z"/>
<path d="M3930 4774 c0 -21 35 -101 53 -121 11 -13 17 -29 13 -38 -4 -13 -1
-15 14 -10 25 8 64 -30 57 -56 -6 -23 6 -25 23 -4 9 11 6 21 -15 49 -16 21
-25 42 -21 51 3 9 1 15 -7 14 -29 -4 -38 3 -58 45 -19 42 -59 89 -59 70z"/>
<path d="M4116 4772 c51 -43 104 -82 104 -76 0 15 -79 84 -96 84 -10 0 -14 -3
-8 -8z"/>
<path d="M1420 4721 c-23 -47 -14 -59 29 -36 38 19 55 47 39 63 -23 23 -47 13
-68 -27z"/>
<path d="M3160 4740 c-13 -9 -13 -11 0 -20 13 -9 52 -15 73 -11 4 1 11 -9 16
-22 10 -27 38 -57 52 -57 15 0 10 30 -6 36 -9 4 -15 19 -15 39 0 21 -6 35 -16
39 -24 9 -87 7 -104 -4z"/>
<path d="M2643 4698 c30 -11 35 -29 12 -48 -8 -7 -15 -18 -15 -24 0 -6 16 6
36 27 19 21 32 42 29 47 -3 6 -25 10 -48 9 -40 -1 -41 -1 -14 -11z"/>
<path d="M2503 4675 c-3 -9 -3 -19 1 -22 7 -7 36 16 36 28 0 15 -30 10 -37 -6z"/>
<path d="M3079 4640 c-14 -11 -18 -19 -11 -20 19 0 52 19 52 30 0 16 -16 12
-41 -10z"/>
<path d="M2737 4633 c-4 -3 -7 -18 -7 -31 0 -23 1 -24 18 -10 10 9 29 14 47
11 l30 -4 -30 21 c-31 21 -47 25 -58 13z"/>
<path d="M4110 4634 c0 -6 7 -29 16 -50 9 -22 16 -41 15 -44 0 -3 6 -5 15 -5
8 0 28 -16 44 -35 26 -32 31 -34 51 -22 55 34 78 14 39 -35 -11 -14 -20 -32
-20 -39 0 -8 9 -14 20 -14 14 0 20 7 20 21 0 11 9 32 20 46 21 27 27 59 10 48
-13 -8 -13 11 0 36 15 26 6 24 -48 -13 l-46 -32 -68 75 c-37 41 -68 69 -68 63z"/>
<path d="M1515 4607 c-10 -8 -15 -19 -11 -25 5 -9 18 -6 47 8 21 11 39 23 39
25 0 11 -57 4 -75 -8z"/>
<path d="M2668 4601 c-16 -10 -25 -20 -22 -24 10 -9 54 15 54 30 0 16 2 16
-32 -6z"/>
<path d="M1609 4570 c-14 -11 -18 -19 -11 -20 19 0 52 19 52 30 0 16 -16 12
-41 -10z"/>
<path d="M2507 4563 c-8 -7 11 -33 24 -33 5 0 9 9 9 20 0 19 -20 27 -33 13z"/>
<path d="M2780 4550 c0 -13 7 -20 20 -20 13 0 20 7 20 20 0 13 -7 20 -20 20
-13 0 -20 -7 -20 -20z"/>
<path d="M1517 4543 c-4 -3 -7 -22 -7 -42 0 -36 -35 -121 -51 -121 -20 0 -30
-41 -18 -78 6 -20 12 -43 13 -52 1 -9 9 -24 19 -34 9 -10 17 -25 18 -34 2 -40
10 -68 25 -79 9 -6 21 -31 28 -54 8 -26 20 -45 34 -50 18 -7 20 -4 17 21 -3
22 2 32 22 45 18 12 22 20 14 28 -7 7 -15 6 -25 -3 -9 -7 -23 -10 -31 -6 -19
7 -58 93 -75 166 -7 30 -20 60 -29 67 -13 10 -5 21 59 83 l75 72 -40 -7 c-39
-7 -39 -6 -22 12 23 26 22 32 -5 26 l-23 -6 24 27 c23 25 23 26 4 26 -11 0
-23 -3 -26 -7z"/>
<path d="M1750 4528 c-38 -26 -54 -56 -24 -44 11 4 38 11 62 16 50 9 57 14 49
35 -9 22 -49 19 -87 -7z"/>
<path d="M2046 4488 c-37 -28 -65 -53 -62 -55 7 -7 78 33 115 65 62 52 16 44
-53 -10z"/>
<path d="M2676 4530 c-10 -28 -15 -70 -7 -70 14 0 28 45 21 65 -6 16 -9 17
-14 5z"/>
<path d="M1596 4523 c-6 -6 4 -15 59 -48 l30 -19 -25 28 c-29 32 -55 48 -64
39z"/>
<path d="M1937 4513 c-12 -12 -7 -43 6 -43 14 0 47 31 47 43 0 9 -45 9 -53 0z"/>
<path d="M2450 4496 c0 -14 5 -26 10 -26 6 0 10 9 10 19 0 11 -4 23 -10 26 -6
4 -10 -5 -10 -19z"/>
<path d="M4140 4496 c0 -12 72 -151 88 -168 9 -11 29 -18 49 -18 28 0 33 -4
33 -23 0 -24 45 -75 56 -64 19 19 -63 127 -96 127 -10 0 -28 16 -40 35 -25 40
-90 120 -90 111z"/>
<path d="M1626 4426 c-30 -23 -42 -86 -16 -86 13 0 70 60 70 75 0 18 -36 25
-54 11z"/>
<path d="M4085 4420 c6 -21 100 -207 110 -219 6 -5 46 26 61 48 14 20 14 21
-11 11 -35 -13 -35 -13 -35 11 0 12 -11 30 -25 41 -14 11 -33 34 -41 50 -9 17
-27 43 -41 57 l-25 26 7 -25z"/>
<path d="M4340 4415 c0 -17 74 -69 78 -55 2 5 -6 23 -18 40 -22 31 -60 41 -60
15z"/>
<path d="M1370 4401 c0 -16 6 -21 25 -21 16 0 25 6 25 15 0 8 -4 15 -9 15 -5
0 -16 3 -25 6 -12 4 -16 0 -16 -15z"/>
<path d="M1860 4363 c-88 -100 -74 -113 20 -18 52 53 60 65 43 65 -13 0 -38
-19 -63 -47z"/>
<path d="M1952 4373 c-12 -22 -5 -43 14 -43 8 0 14 10 14 24 0 31 -16 42 -28
19z"/>
<path d="M1730 4338 c-21 -35 -27 -74 -10 -63 10 6 50 78 50 90 0 16 -23 1
-40 -27z"/>
<path d="M1549 4273 c-4 -43 -3 -65 3 -69 4 -3 8 13 8 35 0 23 -2 41 -5 41 -3
0 -5 -3 -6 -7z"/>
<path d="M2560 4260 c0 -5 12 -10 26 -10 14 0 23 4 19 10 -3 6 -15 10 -26 10
-10 0 -19 -4 -19 -10z"/>
<path d="M1606 4238 c-11 -6 -16 -22 -16 -51 l1 -42 20 28 c12 15 35 35 51 43
16 9 27 18 24 21 -9 10 -63 11 -80 1z"/>
<path d="M4094 4224 c-18 -70 15 -150 77 -188 31 -18 34 -14 38 54 2 25 4 47
7 49 2 2 27 11 56 21 55 18 71 43 30 48 -24 4 -99 -35 -122 -62 -10 -13 -10
-19 0 -31 6 -8 10 -20 8 -26 -5 -15 -52 45 -62 78 -6 18 -4 22 8 17 23 -9 21
29 -2 49 -25 23 -31 21 -38 -9z"/>
<path d="M4410 4180 c-6 -10 -16 -17 -24 -14 -17 6 -58 -44 -54 -65 4 -19 46
-41 64 -34 13 5 19 24 30 96 6 41 0 47 -16 17z m-5 -59 c6 -11 -29 -33 -39
-24 -7 7 12 33 25 33 4 0 10 -4 14 -9z"/>
<path d="M3990 4085 c0 -8 9 -15 20 -15 10 0 24 -8 29 -17 8 -14 10 -15 10 -3
0 22 -24 50 -43 50 -9 0 -16 -7 -16 -15z"/>
<path d="M1779 4073 c0 -4 -2 -16 -4 -25 -2 -10 0 -18 5 -18 12 0 20 39 9 46
-5 3 -9 2 -10 -3z"/>
<path d="M2865 4050 c3 -5 15 -10 26 -10 11 0 17 5 14 10 -3 6 -15 10 -26 10
-11 0 -17 -4 -14 -10z"/>
<path d="M4103 3993 c-7 -3 -13 -18 -13 -35 0 -27 1 -28 16 -14 8 9 20 14 25
10 11 -6 39 13 39 27 0 5 -7 6 -15 3 -8 -4 -21 -2 -28 4 -6 5 -18 7 -24 5z"/>
<path d="M4178 3918 c-6 -37 2 -58 23 -58 13 0 19 -7 20 -25 1 -14 3 -29 4
-35 1 -5 3 -15 4 -20 0 -6 17 -18 36 -27 19 -9 35 -20 35 -25 0 -4 4 -8 9 -8
23 0 -29 111 -87 188 -29 38 -38 40 -44 10z"/>
<path d="M4467 3921 c3 -11 11 -26 19 -32 23 -19 18 15 -5 35 -19 17 -19 17
-14 -3z"/>
<path d="M1550 3917 c0 -8 9 -22 19 -31 10 -10 22 -33 26 -53 12 -67 44 -93
65 -53 7 12 16 17 28 13 16 -5 16 -5 0 12 -15 16 -18 16 -39 1 -36 -24 -41
-20 -23 22 29 67 28 66 12 59 -10 -3 -25 4 -39 19 -25 26 -49 32 -49 11z"/>
<path d="M4000 3776 c0 -8 7 -17 16 -20 12 -5 14 -14 8 -38 -6 -29 -5 -31 10
-19 18 15 21 44 6 72 -12 22 -40 26 -40 5z"/>
<path d="M4645 3743 c-50 -69 -130 -227 -153 -306 -11 -38 -19 -92 -19 -123 2
-48 6 -59 30 -80 16 -13 41 -24 56 -24 28 0 28 -2 24 -42 -2 -24 1 -50 6 -58
16 -24 33 2 37 56 2 26 11 58 19 70 14 21 13 24 -12 43 -30 25 -63 27 -63 6 0
-28 -28 -15 -45 21 -11 24 -15 48 -11 77 9 61 45 163 67 189 16 20 20 21 29 8
6 -8 15 -34 21 -58 6 -23 15 -45 19 -47 5 -3 15 15 24 40 14 44 14 47 -5 66
-23 23 -18 39 12 32 19 -5 20 -2 18 86 -1 50 -5 91 -10 91 -5 0 -25 -21 -44
-47z"/>
<path d="M4352 3694 c2 -27 -1 -38 -9 -36 -19 3 -16 -6 15 -47 30 -39 52 -84
52 -106 0 -7 -7 -21 -16 -30 -21 -21 -28 -12 -50 68 -9 32 -21 60 -27 64 -18
11 1 -83 30 -149 l28 -63 0 -255 c0 -267 -10 -535 -21 -564 -3 -9 1 -34 10
-56 14 -36 14 -40 -1 -48 -12 -7 -14 -17 -8 -43 15 -68 11 -136 -9 -158 -16
-18 -17 -27 -9 -70 20 -102 1 -256 -36 -288 -17 -14 -17 -17 -1 -51 10 -19 15
-45 12 -56 -5 -18 -7 -17 -15 12 -13 43 -25 41 -29 -5 l-3 -38 -15 29 c-8 16
-21 31 -27 34 -29 9 -4 -76 34 -120 13 -15 13 -16 -6 -11 -12 3 -33 20 -46 37
-30 38 -32 24 -5 -44 24 -60 24 -61 6 -54 -8 3 -26 30 -41 60 -15 30 -28 54
-29 54 -2 0 0 -18 4 -41 6 -29 4 -44 -7 -54 -12 -13 -29 -85 -19 -85 2 0 20 7
39 15 20 8 38 11 42 6 9 -16 -45 -71 -71 -71 -38 0 -59 -42 -56 -113 1 -33 -1
-58 -5 -54 -11 12 -43 -25 -43 -51 0 -22 3 -24 32 -18 43 9 48 20 46 100 -2
48 1 70 10 73 8 3 12 -5 12 -23 0 -14 5 -44 11 -65 10 -33 9 -42 -11 -73 -32
-54 -54 -62 -95 -36 -32 20 -34 20 -43 3 -10 -20 -8 -135 3 -152 8 -15 41 -14
65 1 22 14 30 9 33 -21 3 -49 34 -1 35 55 1 63 43 159 87 196 20 17 20 17 -1
18 -11 0 -26 11 -34 24 -16 30 -8 102 14 124 13 13 14 12 10 -16 -2 -18 -6
-45 -8 -62 -2 -16 0 -32 5 -35 12 -8 32 43 99 243 31 94 60 175 64 180 4 4 7
3 5 -3 -1 -5 1 -26 4 -45 10 -49 15 -84 27 -171 19 -139 36 -197 53 -180 7 7
7 26 -1 63 -34 159 -40 327 -28 866 7 274 6 306 -9 329 -14 21 -15 27 -4 34 9
6 19 1 30 -13 14 -18 27 -21 90 -22 98 -1 146 22 176 84 26 55 64 202 79 305
9 64 -11 22 -39 -85 -49 -186 -74 -232 -141 -267 -35 -18 -69 -11 -110 24 -36
31 -76 82 -76 99 0 18 118 32 189 22 21 -3 29 6 57 62 52 103 74 196 71 308
-2 83 -5 102 -25 132 -13 19 -21 26 -18 15 35 -134 27 -242 -30 -388 -25 -64
-49 -97 -70 -97 -17 0 -33 53 -36 117 -4 67 -20 74 -18 8 0 -13 -51 -103 -73
-127 l-24 -28 1 338 c2 422 1 428 -48 482 l-38 42 4 -38z m-296 -2485 c3 -6
15 -9 25 -6 42 11 5 -34 -43 -52 -36 -14 -56 8 -40 44 12 26 45 34 58 14z"/>
<path d="M1665 3690 c-8 -37 -1 -48 20 -30 19 16 19 34 1 49 -12 10 -15 6 -21
-19z"/>
<path d="M3305 3676 c-24 -21 -34 -35 -25 -36 22 0 74 44 69 59 -3 8 -19 -1
-44 -23z"/>
<path d="M3207 3684 c-14 -14 -7 -35 11 -32 9 2 17 10 17 17 0 16 -18 25 -28
15z"/>
<path d="M3630 3678 c0 -17 61 -58 84 -58 16 0 16 2 5 16 -20 25 -89 57 -89
42z"/>
<path d="M2285 3660 c-15 -16 -15 -20 -3 -20 8 0 23 9 33 20 15 16 15 20 3 20
-8 0 -23 -9 -33 -20z"/>
<path d="M3383 3620 c-25 -23 -48 -37 -56 -34 -8 3 -18 0 -23 -7 -11 -19 25
-39 73 -39 24 0 58 -7 75 -16 29 -15 34 -15 59 0 19 11 53 16 111 17 45 0 77
3 71 6 -7 2 -13 12 -13 21 0 12 -11 18 -38 21 -45 5 -136 5 -177 0 -29 -4 -30
-3 -27 34 1 20 -1 37 -5 37 -4 0 -27 -18 -50 -40z"/>
<path d="M1796 3628 c-18 -25 -21 -48 -7 -48 11 0 51 48 51 61 0 17 -29 9 -44
-13z"/>
<path d="M4025 3611 c-2 -5 4 -20 15 -34 19 -24 19 -25 1 -20 -10 3 -22 0 -25
-5 -12 -20 7 -42 44 -52 28 -7 42 -18 49 -38 10 -25 11 -23 7 15 -6 63 -73
162 -91 134z"/>
<path d="M3243 3589 c-17 -21 -56 -136 -51 -150 2 -7 19 22 37 65 31 75 38
114 14 85z"/>
<path d="M1568 3578 c-3 -7 -2 -22 2 -32 6 -19 7 -19 12 1 7 25 -6 53 -14 31z"/>
<path d="M3724 3554 c-18 -14 -18 -15 4 -4 12 6 22 13 22 15 0 8 -5 6 -26 -11z"/>
<path d="M3895 3554 c-22 -8 -47 -21 -55 -29 -13 -13 -12 -15 5 -16 73 -4 115
11 115 41 0 23 -11 24 -65 4z"/>
<path d="M3029 3541 l-24 -20 33 -33 33 -33 -7 44 c-6 39 -5 44 9 38 21 -8 49
2 41 14 -9 16 -61 10 -85 -10z"/>
<path d="M2440 3517 c0 -9 -8 -13 -22 -10 -24 4 -89 -26 -96 -45 -4 -14 42
-38 91 -47 30 -6 37 -4 37 9 0 9 -16 22 -35 30 -19 8 -35 20 -35 25 0 14 16
14 41 0 12 -6 51 -16 87 -23 52 -10 67 -16 66 -29 -2 -24 33 -21 41 3 9 28 -1
39 -59 65 -73 32 -116 40 -116 22z"/>
<path d="M4718 3524 c-9 -8 16 -77 30 -82 8 -2 8 7 0 35 -11 41 -21 57 -30 47z"/>
<path d="M1790 3505 c-10 -12 -9 -20 4 -40 18 -27 35 -25 54 6 13 20 12 21
-18 14 -30 -7 -31 -6 -21 14 13 24 0 28 -19 6z"/>
<path d="M2269 3500 c-19 -15 -21 -19 -7 -20 15 0 48 24 48 36 0 10 -20 3 -41
-16z"/>
<path d="M3985 3440 c-8 -36 -3 -45 20 -36 11 4 15 15 13 33 -4 38 -25 40 -33
3z"/>
<path d="M1960 3399 c-30 -28 -49 -48 -42 -44 30 16 32 -9 2 -61 -36 -64 -37
-74 -9 -74 14 0 19 5 16 14 -6 15 22 46 41 46 18 0 25 20 12 35 -25 30 19 48
49 21 11 -10 22 -12 31 -6 12 7 12 12 -4 28 -17 20 -17 20 26 10 55 -12 275
-5 289 9 29 29 -116 56 -172 33 -32 -14 -123 -16 -158 -5 -11 3 -21 15 -23 25
-2 16 -12 11 -58 -31z"/>
<path d="M3097 3444 c-14 -14 -7 -35 11 -32 9 2 17 10 17 17 0 16 -18 25 -28
15z"/>
<path d="M2663 3414 c-3 -9 -20 -22 -37 -29 l-30 -13 38 -16 c32 -13 38 -20
34 -40 -3 -17 -1 -23 8 -19 14 5 30 -21 38 -58 2 -13 12 -66 21 -116 25 -135
46 -121 46 29 0 46 -4 98 -10 116 -9 31 -46 71 -65 72 -18 0 -34 36 -29 63 6
29 -4 37 -14 11z"/>
<path d="M3447 3420 c-16 -5 -52 -27 -81 -48 -58 -44 -128 -72 -182 -72 -52 0
-74 -15 -74 -51 0 -27 2 -29 20 -19 19 10 20 9 14 -17 -6 -26 -4 -25 43 20
l49 47 22 -25 22 -25 57 22 c32 11 72 32 90 45 40 30 77 28 81 -6 3 -22 7 -23
57 -17 29 3 73 13 97 22 49 18 68 20 118 7 43 -11 106 -1 128 21 14 14 14 17
-2 35 -31 34 -166 64 -306 67 -69 2 -138 -1 -153 -6z m350 -45 c29 -8 55 -21
59 -27 9 -15 -158 -3 -189 13 -48 26 -144 10 -251 -41 -44 -21 -96 -41 -115
-44 l-34 -6 24 19 c46 36 131 84 172 97 55 18 261 11 334 -11z"/>
<path d="M2789 3405 c-1 -6 -2 -17 -3 -25 -2 -24 23 -70 38 -70 12 0 12 7 4
38 -10 36 -37 76 -39 57z"/>
<path d="M4090 3393 c-14 -9 -40 -29 -57 -44 -18 -16 -48 -31 -68 -35 -20 -3
-35 -12 -35 -20 0 -8 -10 -14 -24 -14 -13 0 -43 -16 -66 -35 -23 -19 -50 -35
-60 -35 -10 0 -21 -7 -24 -16 -4 -10 -13 -13 -26 -9 -21 7 -102 -14 -95 -25
11 -17 132 12 185 44 49 31 57 33 71 20 15 -14 25 -13 85 5 38 11 94 27 125
35 66 18 99 47 79 71 -17 21 -29 19 -50 -8 -18 -22 -134 -66 -145 -55 -3 2 27
29 67 59 66 50 92 79 71 79 -5 0 -20 -8 -33 -17z"/>
<path d="M4763 3304 c4 -100 12 -138 27 -115 12 21 -4 189 -21 205 -5 6 -8
-28 -6 -90z"/>
<path d="M1765 3353 c7 -24 12 -89 15 -168 0 -18 2 -18 20 5 15 19 20 21 20 9
0 -9 6 -21 13 -27 14 -12 67 -24 67 -15 0 2 -20 24 -45 49 -50 48 -56 74 -28
123 19 33 9 57 -12 28 -12 -16 -13 -16 -18 3 -3 11 -13 20 -22 20 -14 0 -16
-5 -10 -27z"/>
<path d="M2305 3261 c-2 -4 10 -8 26 -9 40 -3 160 -31 179 -42 12 -7 10 -9
-10 -10 -14 0 -31 -4 -39 -9 -11 -7 -4 -12 25 -19 68 -18 132 -23 139 -11 13
20 -39 60 -106 80 -65 20 -205 33 -214 20z"/>
<path d="M2115 3201 c-33 -17 -78 -47 -100 -68 l-40 -38 28 -3 c30 -4 33 -11
15 -33 -33 -39 -77 -55 -183 -64 -38 -4 -72 -9 -75 -12 -3 -2 8 -16 24 -29 26
-23 30 -24 51 -10 12 8 42 18 66 21 56 8 177 72 198 105 11 17 23 24 39 22 19
-3 22 1 22 27 0 39 -12 45 -52 25 l-33 -17 24 27 c19 21 113 66 137 66 3 0 -4
-14 -16 -30 -12 -17 -20 -38 -18 -48 7 -33 167 -9 223 34 20 15 20 15 1 30
-11 8 -31 13 -45 12 -14 0 -66 2 -116 6 -87 7 -92 6 -150 -23z"/>
<path d="M3217 3173 c-15 -14 -5 -21 36 -25 27 -3 62 -18 95 -41 29 -19 89
-48 135 -62 102 -33 103 -33 99 -14 -2 13 10 17 51 22 58 6 296 73 311 88 6 5
1 9 -13 9 -13 0 -35 7 -51 16 -26 16 -29 16 -58 -5 -65 -46 -180 -65 -224 -37
-19 12 -31 13 -65 3 -39 -10 -43 -9 -61 12 -12 16 -35 26 -68 32 -61 10 -178
11 -187 2z"/>
<path d="M3117 3127 c-9 -15 -13 -28 -7 -32 11 -6 33 31 28 47 -2 6 -12 -1
-21 -15z"/>
<path d="M4017 3136 c-6 -15 19 -43 29 -33 8 8 -5 47 -16 47 -4 0 -10 -6 -13
-14z"/>
<path d="M1822 3114 c-18 -12 -20 -19 -11 -35 5 -11 25 -27 42 -35 60 -29 114
16 57 46 -15 8 -17 6 -13 -10 4 -15 0 -20 -15 -20 -48 0 -70 29 -36 48 9 5 12
12 7 15 -5 3 -19 -1 -31 -9z"/>
<path d="M2545 3064 c-246 -102 -348 -127 -430 -104 -45 13 -95 7 -95 -10 0
-6 21 -10 46 -10 26 0 43 -4 39 -9 -3 -6 -43 -32 -88 -60 -81 -49 -153 -111
-128 -111 7 0 40 20 75 45 86 61 99 65 240 80 113 12 347 105 403 161 22 22
26 23 52 10 41 -22 62 2 38 42 -13 20 -35 15 -152 -34z m-305 -160 c0 -2 -15
-4 -32 -4 -23 0 -29 3 -19 9 12 8 51 4 51 -5z"/>
<path d="M3927 3085 c23 -16 83 -32 83 -22 0 11 -58 37 -82 37 l-22 0 21 -15z"/>
<path d="M4280 2997 c0 -23 17 -47 32 -47 9 0 4 43 -7 60 -11 18 -25 11 -25
-13z"/>
<path d="M3310 3001 c0 -23 96 -85 114 -74 5 4 1 9 -10 13 -10 4 -19 15 -19
25 0 12 -13 22 -42 30 -24 7 -43 10 -43 6z"/>
<path d="M2747 2983 c-3 -3 7 -23 23 -45 16 -21 31 -45 33 -51 2 -7 8 -9 12
-5 11 11 -22 81 -45 95 -10 7 -20 9 -23 6z"/>
<path d="M1873 2893 c-40 -20 -50 -43 -27 -60 10 -7 21 -13 26 -13 14 0 9 20
-7 26 -22 9 -18 24 6 24 25 0 59 17 59 30 0 14 -20 11 -57 -7z"/>
<path d="M4295 2895 c-14 -11 -19 -28 -20 -68 -1 -28 -4 -65 -8 -82 -4 -16 -3
-37 3 -45 17 -27 30 4 34 83 3 49 10 87 20 102 19 29 4 34 -29 10z"/>
<path d="M1698 2879 c-24 -13 -23 -32 3 -60 20 -24 20 -24 16 -2 -3 12 1 30 9
41 20 29 4 40 -28 21z"/>
<path d="M1626 2861 c-10 -15 -14 -91 -6 -91 7 0 17 28 26 78 4 22 -9 31 -20
13z"/>
<path d="M3570 2855 c0 -21 17 -45 32 -45 14 0 9 17 -12 41 -19 23 -19 23 -20
4z"/>
<path d="M1687 2774 c-12 -12 -8 -41 10 -79 17 -36 39 -43 37 -12 -1 10 -2 26
-3 36 -1 24 -34 65 -44 55z"/>
<path d="M2448 2763 c-6 -7 -8 -16 -5 -19 7 -7 47 14 47 25 0 13 -29 9 -42 -6z"/>
<path d="M3285 2740 c3 -5 15 -10 26 -10 10 0 19 5 19 10 0 6 -12 10 -26 10
-14 0 -23 -4 -19 -10z"/>
<path d="M2640 2701 c0 -3 9 -12 20 -19 11 -6 29 -30 40 -52 22 -44 40 -52 40
-18 0 30 -45 85 -75 90 -14 3 -25 2 -25 -1z"/>
<path d="M3350 2700 c0 -13 37 -90 55 -113 9 -13 20 -17 34 -12 11 3 33 -1 49
-9 28 -14 39 -26 100 -106 13 -16 33 -30 44 -30 28 0 188 -85 232 -123 32 -28
42 -44 45 -79 1 -5 10 -8 21 -8 11 0 20 -4 20 -10 0 -5 -9 -32 -20 -60 -11
-28 -20 -64 -20 -81 0 -40 -36 -88 -61 -82 -27 7 -25 -22 3 -41 12 -9 31 -16
41 -16 18 0 18 2 4 23 -14 21 -13 24 8 43 42 38 86 190 71 249 -12 46 -82 112
-139 131 -51 16 -109 52 -135 84 -7 8 -20 32 -29 53 -9 21 -28 44 -44 52 -18
10 -26 20 -23 30 4 9 0 15 -7 15 -8 0 -27 7 -44 16 -68 37 -110 56 -154 70
-55 17 -51 16 -51 4z"/>
<path d="M3242 2683 c-18 -32 -16 -51 4 -31 9 8 14 24 12 34 -4 18 -5 17 -16
-3z"/>
<path d="M2851 2650 c0 -33 1 -34 11 -12 8 17 8 26 0 34 -9 9 -12 4 -11 -22z"/>
<path d="M2616 2652 c-2 -4 -7 -25 -11 -47 -12 -70 -16 -77 -36 -72 -14 4 -19
1 -17 -11 2 -9 -15 -28 -42 -46 -76 -50 -180 -170 -180 -207 0 -6 -26 -37 -58
-68 -89 -86 -152 -221 -104 -221 53 0 127 91 99 119 -11 11 19 62 72 121 17
19 53 62 79 94 104 131 123 136 177 51 19 -30 43 -59 53 -64 10 -5 51 -12 92
-15 52 -5 94 -15 142 -37 111 -52 189 -41 286 39 26 22 62 46 81 53 89 36 137
65 150 92 7 17 9 33 4 38 -16 16 -138 -57 -238 -145 -81 -70 -150 -76 -280
-21 -73 31 -102 38 -152 38 -55 -1 -62 1 -67 21 -3 13 -19 40 -36 61 -16 21
-30 48 -30 60 0 34 28 94 56 120 23 21 23 24 9 39 -17 17 -41 21 -49 8z m-383
-600 c-3 -12 -9 -22 -14 -22 -17 0 -21 28 -9 51 10 18 14 20 21 7 4 -8 5 -24
2 -36z"/>
<path d="M4300 2625 c-10 -12 -9 -16 5 -21 17 -7 38 13 29 28 -8 12 -20 10
-34 -7z"/>
<path d="M2810 2610 c11 -20 58 -45 67 -36 3 2 -9 12 -26 21 -17 8 -31 20 -31
25 0 6 -5 10 -10 10 -7 0 -7 -7 0 -20z"/>
<path d="M2430 2582 c0 -5 11 -14 25 -20 29 -14 44 2 16 17 -24 13 -41 14 -41
3z"/>
<path d="M1750 2551 c0 -35 9 -61 21 -61 10 0 12 34 3 68 -9 32 -24 27 -24 -7z"/>
<path d="M2325 2490 c-7 -12 31 -19 46 -9 8 5 10 9 4 10 -5 0 -18 2 -27 4 -10
2 -20 0 -23 -5z"/>
<path d="M4090 2490 c0 -5 8 -14 18 -19 14 -9 15 -12 3 -20 -8 -5 -20 -7 -28
-4 -19 7 -16 -2 12 -46 14 -21 28 -56 32 -77 12 -83 43 -77 43 8 0 39 -4 49
-27 66 -23 17 -26 23 -15 33 18 19 15 47 -7 59 -24 12 -31 13 -31 0z"/>
<path d="M3180 2431 c-49 -43 -50 -66 -1 -30 32 24 67 69 54 69 -5 0 -28 -18
-53 -39z"/>
<path d="M2790 2429 c0 -23 65 -89 87 -89 15 0 16 10 4 43 -21 56 -91 91 -91
46z"/>
<path d="M3644 2395 c-9 -23 11 -41 88 -80 78 -38 120 -47 97 -19 -16 20 -114
86 -152 102 -23 10 -29 9 -33 -3z"/>
<path d="M2070 2295 c-10 -12 -9 -16 5 -21 19 -8 40 9 31 25 -10 15 -21 14
-36 -4z"/>
<path d="M3280 2291 c16 -32 30 -34 30 -7 0 19 -5 26 -20 26 -17 0 -19 -3 -10
-19z"/>
<path d="M3430 2272 c0 -12 9 -30 21 -41 13 -12 19 -28 17 -44 -1 -13 3 -32
11 -41 11 -13 12 -35 7 -96 -3 -44 -4 -80 -2 -80 16 0 46 48 46 73 0 60 -54
211 -85 237 -13 11 -15 9 -15 -8z"/>
<path d="M1971 2258 c-13 -35 -3 -166 18 -243 51 -185 188 -451 218 -422 8 9
-20 82 -74 192 -72 147 -113 245 -113 269 0 13 -7 29 -15 36 -26 21 -18 50 14
56 28 6 29 8 16 28 -7 11 -18 40 -25 64 -12 46 -26 54 -39 20z"/>
<path d="M3187 2207 c-21 -44 -36 -81 -34 -84 3 -2 10 5 17 16 14 27 26 20 34
-21 12 -59 27 -6 24 84 l-3 83 -38 -78z"/>
<path d="M3709 2261 c27 -25 43 -27 35 -6 -4 8 -10 15 -14 15 -5 0 -17 3 -27
6 -14 4 -13 1 6 -15z"/>
<path d="M3529 2251 c15 -27 102 -82 126 -79 31 5 24 31 -11 39 -17 3 -47 18
-66 32 -42 32 -63 36 -49 8z"/>
<path d="M2657 2238 c-12 -10 -17 -37 -21 -120 -3 -58 -11 -118 -18 -132 -14
-33 -48 -42 -98 -27 -55 16 -61 15 -54 -14 3 -14 2 -25 -3 -25 -15 0 -48 32
-63 59 -10 20 -14 21 -21 9 -11 -20 -23 -138 -14 -138 4 0 21 11 37 26 20 16
37 23 47 18 9 -4 34 -10 57 -14 23 -3 53 -18 70 -33 43 -41 48 -37 44 31 -2
38 15 42 53 12 14 -11 28 -20 31 -20 3 0 6 9 6 20 0 48 82 2 96 -54 12 -51
-40 -79 -76 -41 -21 23 -23 23 -56 7 -19 -8 -34 -19 -34 -22 0 -6 89 -24 180
-36 229 -30 330 -24 482 27 79 26 178 75 201 100 10 10 23 20 30 20 69 7 103
21 92 39 -16 26 45 110 80 110 11 0 30 7 41 15 25 17 34 11 34 -25 0 -33 9
-43 26 -29 19 16 28 73 15 97 -8 15 -18 19 -38 16 -16 -2 -47 -5 -71 -8 -54
-6 -59 -10 -107 -95 -39 -70 -60 -87 -100 -82 -14 1 -24 -7 -32 -29 -13 -33
-36 -39 -70 -15 -34 24 -32 47 9 110 21 32 38 63 38 67 0 18 -44 6 -62 -17
-22 -29 -68 -34 -88 -10 -12 14 -16 13 -36 -6 -35 -33 -104 -27 -104 7 0 15
-48 143 -57 154 -10 12 -22 -29 -17 -60 12 -79 17 -92 40 -114 22 -20 23 -24
10 -36 -24 -19 -120 -16 -153 5 l-27 18 23 18 c21 17 21 20 7 48 -15 28 -15
29 4 24 16 -4 20 0 20 20 0 13 -7 30 -16 37 -29 25 -46 -9 -51 -104 -4 -52
-11 -90 -19 -97 -7 -5 -34 -9 -61 -7 -39 2 -48 6 -47 21 1 9 -5 17 -14 17 -8
0 -21 -8 -28 -17 -12 -17 -15 -16 -39 12 l-25 30 2 -30 c3 -27 0 -30 -29 -33
-26 -3 -33 1 -33 14 0 32 64 146 86 154 25 10 54 47 54 69 0 11 -3 11 -18 -2
-10 -10 -26 -17 -35 -17 -10 0 -31 -23 -50 -52 l-32 -53 -3 32 c-4 42 32 113
58 113 26 0 25 15 -2 34 -27 19 -30 19 -51 4z m684 -315 c21 -97 21 -96 -38
-99 -29 -2 -63 -10 -76 -19 -51 -33 -287 -62 -287 -35 0 6 -18 10 -40 10 -36
0 -41 3 -55 36 -17 41 -20 80 -6 88 5 3 27 -8 50 -24 48 -35 51 -36 51 -12 0
51 77 59 120 11 l29 -30 16 30 c28 55 102 74 117 31 2 -6 21 7 43 30 21 22 45
40 51 40 7 0 18 -26 25 -57z"/>
<path d="M4130 2227 c0 -9 -17 -59 -37 -109 -27 -65 -34 -93 -25 -96 19 -6 14
-23 -13 -52 -14 -15 -39 -65 -56 -111 -17 -46 -39 -108 -50 -136 -23 -64 -24
-106 -3 -124 15 -12 16 -10 10 18 -6 24 -3 34 9 41 9 5 27 38 40 73 12 35 39
101 59 146 39 87 86 255 86 307 0 17 -5 38 -10 46 -8 13 -10 12 -10 -3z"/>
<path d="M3290 2204 c0 -14 4 -23 10 -19 6 3 10 15 10 26 0 10 -4 19 -10 19
-5 0 -10 -12 -10 -26z"/>
<path d="M2426 2201 c-7 -9 -23 -34 -34 -56 -11 -22 -30 -49 -42 -60 -39 -35
-68 -98 -75 -160 -3 -33 -8 -68 -12 -79 -8 -29 -23 1 -23 49 0 54 -10 85 -26
85 -16 0 -34 -31 -34 -60 0 -34 60 -139 92 -162 26 -18 29 -24 24 -62 -8 -58
-22 -102 -40 -128 -21 -29 -20 -57 0 -65 18 -7 47 23 38 38 -3 5 9 43 26 85
43 107 39 194 -9 177 -14 -6 -14 -4 2 14 21 25 21 29 -2 61 -23 33 -16 55 33
101 25 25 36 44 36 64 0 19 16 52 45 93 25 34 45 67 45 72 0 14 -29 10 -44 -7z
m-103 -215 c-38 -33 -41 -25 -7 14 16 17 30 27 32 21 2 -6 -9 -22 -25 -35z"/>
<path d="M3773 2204 c-10 -27 11 -49 51 -52 31 -3 36 -7 36 -28 0 -15 6 -24
15 -24 17 0 19 27 6 63 -8 19 -15 23 -35 20 -15 -3 -26 -1 -26 5 0 6 -9 16
-20 22 -16 9 -22 8 -27 -6z"/>
<path d="M3380 2203 c0 -5 10 -24 22 -43 25 -41 36 -25 13 19 -14 28 -35 42
-35 24z"/>
<path d="M4245 2143 c3 -16 15 -41 26 -58 18 -29 19 -29 19 -7 0 29 -29 92
-42 92 -6 0 -7 -11 -3 -27z"/>
<path d="M2875 2130 c-16 -26 -43 -120 -34 -120 10 0 59 96 59 118 0 14 -16
16 -25 2z"/>
<path d="M3039 2088 c-6 -25 -6 -39 1 -43 4 -3 10 4 13 15 3 11 1 23 -4 26 -5
3 -9 4 -10 2z"/>
<path d="M3560 2077 c0 -19 26 -41 40 -32 12 8 13 35 1 35 -5 0 -16 3 -25 6
-10 4 -16 1 -16 -9z"/>
<path d="M2752 2068 c-16 -16 -15 -38 2 -38 17 0 30 30 18 42 -4 4 -13 3 -20
-4z"/>
<path d="M3863 2073 c-7 -2 -13 -11 -13 -20 0 -20 34 -12 38 10 3 17 -3 20
-25 10z"/>
<path d="M2473 2050 c-44 -19 -57 -40 -26 -40 15 0 93 47 93 56 0 9 -28 2 -67
-16z"/>
<path d="M2545 2020 c-16 -16 -25 -30 -19 -30 10 1 64 46 64 55 0 13 -18 3
-45 -25z"/>
<path d="M4217 2023 c-11 -10 -8 -61 3 -68 6 -3 14 5 20 19 14 37 -2 70 -23
49z"/>
<path d="M3780 1943 c1 -16 45 -87 58 -91 22 -7 13 44 -13 72 -23 25 -45 34
-45 19z"/>
<path d="M3735 1795 c-31 -24 -31 -41 -1 -29 16 6 41 42 34 49 -2 2 -17 -7
-33 -20z"/>
<path d="M3844 1795 c-13 -53 -2 -195 16 -195 13 0 20 29 20 88 0 109 -20 169
-36 107z"/>
<path d="M2420 1732 c-42 -50 -43 -55 -7 -28 20 16 37 32 37 37 0 15 -15 10
-30 -9z"/>
<path d="M2620 1721 c-13 -26 -13 -31 5 -31 12 0 35 28 35 44 0 14 -30 4 -40
-13z"/>
<path d="M2450 1682 c-18 -11 -36 -24 -38 -31 -3 -8 5 -7 22 4 26 17 27 17 41
-1 13 -18 15 -18 31 -2 14 14 15 20 4 32 -16 20 -18 20 -60 -2z"/>
<path d="M4495 1652 c8 -16 17 -76 20 -141 3 -63 8 -118 11 -123 10 -16 6
-106 -6 -129 -12 -22 -13 -22 -35 20 l-21 43 4 -59 c3 -39 -1 -71 -11 -95 -18
-42 -88 -140 -114 -160 -10 -7 -27 -31 -38 -52 -20 -40 -139 -167 -187 -199
-14 -10 -33 -32 -41 -48 -8 -17 -38 -48 -67 -70 -48 -36 -66 -44 -96 -40 -7 1
-9 -9 -7 -23 4 -20 -6 -36 -49 -78 -70 -69 -192 -176 -236 -208 -20 -14 -56
-47 -81 -73 -25 -27 -61 -57 -81 -67 -19 -10 -44 -27 -55 -37 -45 -43 -74 -55
-136 -56 -36 -1 -64 -7 -66 -13 -10 -30 110 -24 187 8 32 14 131 85 155 112 6
6 39 36 75 66 36 30 67 57 70 60 3 3 50 45 105 95 378 339 588 574 713 796 66
116 84 227 44 259 -19 16 -19 17 -1 39 25 30 42 97 34 130 -10 38 -44 71 -76
71 -27 0 -27 -1 -14 -28z"/>
<path d="M2740 1662 c0 -5 11 -14 25 -20 26 -12 33 -4 13 16 -14 14 -38 16
-38 4z"/>
<path d="M3316 1651 c-9 -14 4 -41 20 -41 8 0 14 6 14 14 0 18 -26 40 -34 27z"/>
<path d="M4039 1630 c-4 -68 0 -100 15 -100 13 0 14 15 7 103 -2 24 -21 22
-22 -3z"/>
<path d="M2501 1604 c-24 -31 -17 -53 9 -29 20 18 33 55 20 55 -5 0 -18 -12
-29 -26z"/>
<path d="M3420 1593 c0 -7 9 -18 21 -27 16 -11 28 -12 50 -4 16 6 41 8 54 6
21 -4 23 -3 14 13 -9 18 -40 21 -55 6 -12 -11 -59 -8 -72 5 -9 9 -12 9 -12 1z"/>
<path d="M3780 1589 c0 -15 69 -109 81 -109 25 0 -6 59 -55 103 -22 20 -26 21
-26 6z"/>
<path d="M4650 1591 c0 -7 62 -140 139 -296 l138 -282 -3 -159 c-7 -349 -8
-781 -1 -817 5 -22 14 -37 22 -37 15 0 19 10 15 44 -1 13 3 17 14 13 21 -8 21
19 1 39 -10 11 -13 27 -9 57 3 23 7 53 9 67 2 14 4 87 6 163 1 95 6 145 16
165 13 25 13 28 -6 41 -27 17 -27 51 -1 58 24 6 25 11 4 52 -22 45 -21 141 3
159 17 13 17 14 -1 27 -14 11 -19 25 -18 52 1 21 -4 54 -13 73 -19 46 -75 261
-79 305 -5 51 20 46 93 -20 34 -31 111 -96 171 -145 120 -100 164 -146 156
-166 -4 -10 3 -14 21 -14 15 0 36 -8 47 -19 12 -10 35 -23 51 -28 17 -5 35
-20 41 -32 6 -12 21 -31 33 -43 12 -11 20 -26 17 -34 -3 -8 -1 -14 4 -14 13 0
28 32 23 48 -8 20 21 14 35 -9 9 -14 19 -18 32 -14 14 5 20 2 20 -10 0 -8 7
-18 16 -22 10 -3 14 -13 11 -25 -4 -16 -3 -17 9 -7 8 6 31 11 51 11 45 -1 170
-43 218 -72 l33 -20 6 22 c6 20 7 21 16 6 10 -16 53 -34 104 -44 15 -2 66 -18
114 -35 167 -58 207 -71 272 -83 58 -11 65 -15 62 -34 -3 -17 2 -22 20 -22 48
-1 337 -96 385 -128 25 -16 53 -10 53 11 0 26 -49 59 -141 93 -52 19 -344 119
-649 221 -305 102 -592 202 -637 224 -85 40 -201 122 -313 219 -106 92 -262
213 -310 241 -25 15 -74 36 -110 48 -80 27 -98 41 -149 122 -23 35 -41 58 -41
50z"/>
<path d="M3164 1561 c10 -11 19 -27 20 -35 3 -19 7 -20 47 -12 38 7 31 20 -26
46 -55 25 -63 25 -41 1z"/>
<path d="M2370 1551 c0 -4 10 -20 21 -35 12 -15 29 -48 38 -74 12 -34 23 -48
38 -50 13 -2 25 -15 32 -33 10 -29 31 -40 31 -16 0 18 -86 156 -118 190 -26
27 -42 34 -42 18z"/>
<path d="M2538 1548 c-16 -5 -28 -14 -28 -19 0 -11 -2 -11 38 0 36 11 40 2 17
-39 -19 -34 -19 -38 8 -42 14 -2 22 -10 22 -22 0 -13 8 -20 25 -21 14 -1 34
-6 44 -10 13 -6 17 -5 12 3 -4 6 0 28 9 48 20 47 20 47 -15 29 -41 -21 -60
-19 -61 8 -2 45 -4 50 -24 62 -14 9 -28 10 -47 3z"/>
<path d="M2888 1523 c-9 -10 -13 -23 -11 -30 2 -7 -7 -25 -22 -40 -31 -33 -59
-82 -51 -91 4 -3 19 6 34 20 15 14 33 23 41 21 9 -4 11 0 7 15 -4 12 -1 22 7
25 20 7 41 -8 32 -24 -6 -9 -3 -11 9 -6 10 4 20 7 22 7 3 0 -3 14 -11 31 -9
16 -15 38 -14 47 4 46 -15 57 -43 25z"/>
<path d="M3756 1529 c-3 -8 -10 -33 -16 -57 -9 -37 -14 -42 -31 -37 -17 6 -20
3 -17 -12 3 -13 11 -17 31 -15 15 1 38 -5 52 -14 28 -18 29 -15 15 36 -5 19
-12 51 -15 70 -7 40 -13 49 -19 29z"/>
<path d="M3402 1518 c-9 -9 -5 -15 18 -25 20 -8 37 -26 49 -53 19 -43 35 -35
24 12 -15 60 -62 95 -91 66z"/>
<path d="M2805 1497 c-48 -36 -73 -69 -95 -126 -20 -53 -20 -89 0 -76 6 4 33
-17 60 -45 50 -51 75 -58 65 -17 -3 12 -7 32 -8 45 -2 28 -12 28 -30 1 -15
-20 -15 -20 -21 8 -4 15 -7 51 -7 80 -1 47 2 55 35 86 20 19 36 42 36 51 0 20
1 20 -35 -7z"/>
<path d="M3127 1500 c-4 -14 -11 -21 -20 -17 -8 3 -20 1 -28 -3 -19 -12 29
-30 55 -20 26 9 29 22 13 44 -13 18 -14 18 -20 -4z"/>
<path d="M3330 1501 c-6 -12 -10 -34 -8 -49 4 -27 4 -27 23 11 14 27 16 40 8
48 -8 8 -14 5 -23 -10z"/>
<path d="M2290 1470 l-25 -19 25 -9 c28 -11 37 -6 42 22 4 26 -12 29 -42 6z"/>
<path d="M3230 1476 c0 -15 37 -32 47 -22 3 3 3 12 0 21 -8 19 -47 20 -47 1z"/>
<path d="M4620 1476 c-6 -8 -10 -24 -8 -36 3 -18 5 -19 19 -8 24 19 34 58 16
58 -8 0 -20 -7 -27 -14z"/>
<path d="M3006 1471 c-5 -7 -10 -38 -13 -69 -3 -31 -7 -59 -9 -61 -2 -2 -14 4
-25 15 -22 19 -22 19 -14 -6 8 -26 43 -80 51 -80 3 0 3 4 -1 9 -3 5 4 33 15
61 21 52 24 91 11 124 -6 14 -10 16 -15 7z"/>
<path d="M3959 1468 c-10 -35 7 -128 23 -128 9 0 10 75 2 108 -5 18 -21 31
-25 20z"/>
<path d="M3831 1425 c0 -23 21 -55 37 -55 12 0 27 58 18 68 -4 3 -9 -4 -12
-16 l-6 -21 -19 22 c-18 21 -18 21 -18 2z"/>
<path d="M3188 1408 c-17 -26 -40 -90 -35 -95 2 -2 16 15 31 37 24 37 28 39
42 25 19 -19 19 -19 39 1 20 20 3 44 -25 37 -11 -3 -20 0 -20 6 0 18 -17 12
-32 -11z"/>
<path d="M3061 1398 c-1 -27 45 -92 59 -83 12 7 6 50 -7 51 -7 1 -17 2 -22 3
-5 0 -14 13 -19 29 l-10 27 -1 -27z"/>
<path d="M2372 1371 c3 -21 0 -31 -8 -31 -20 0 -27 -19 -14 -35 17 -20 76 -19
84 1 4 11 0 14 -17 12 -20 -3 -22 1 -22 36 0 24 -5 41 -14 44 -10 3 -13 -3 -9
-27z"/>
<path d="M3657 1374 c25 -35 61 -69 68 -63 6 7 -44 68 -67 80 l-21 11 20 -28z"/>
<path d="M3909 1363 c-13 -17 -34 -36 -46 -42 -18 -9 -22 -18 -18 -44 2 -18 6
-48 9 -67 6 -43 -8 -73 -24 -50 -5 8 -10 33 -10 55 -1 48 -28 112 -60 140 -13
11 -21 16 -19 10 3 -5 17 -37 32 -69 15 -33 26 -63 25 -68 -2 -4 -24 3 -50 17
-55 29 -58 30 -58 11 0 -8 9 -18 21 -21 18 -6 19 -12 14 -57 l-7 -51 24 27 23
27 23 -21 c12 -11 22 -32 22 -47 0 -21 3 -23 14 -14 24 20 47 80 53 134 3 35
14 66 34 96 35 51 34 78 -2 34z"/>
<path d="M3340 1332 c0 -21 27 -62 41 -62 5 0 0 18 -11 40 -22 44 -30 49 -30
22z"/>
<path d="M2570 1286 c0 -16 5 -26 15 -26 8 0 15 6 15 14 0 7 -7 19 -15 26 -13
11 -15 8 -15 -14z"/>
<path d="M3050 1282 c0 -36 9 -62 21 -62 15 0 10 67 -6 80 -13 11 -15 8 -15
-18z"/>
<path d="M2888 1289 c-2 -7 0 -32 5 -55 8 -34 7 -50 -6 -75 -13 -27 -13 -38
-3 -63 17 -43 36 -45 37 -4 1 18 3 59 4 91 2 32 0 70 -4 84 -8 29 -27 41 -33
22z"/>
<path d="M3280 1293 c0 -15 47 -70 54 -62 3 3 -8 21 -24 40 -16 19 -29 29 -30
22z"/>
<path d="M2529 1288 c-6 -15 -4 -60 3 -64 4 -3 8 11 8 30 0 29 -6 47 -11 34z"/>
<path d="M3550 1264 c0 -3 19 -33 42 -67 53 -78 139 -167 161 -167 30 0 1 40
-34 47 -24 4 -29 11 -29 33 0 29 -21 55 -35 42 -4 -4 -5 12 -2 36 4 40 4 42
-13 27 -17 -15 -20 -14 -44 12 -14 15 -26 31 -26 35 0 5 -4 8 -10 8 -5 0 -10
-2 -10 -6z"/>
<path d="M2956 1228 c13 -23 37 -48 46 -48 15 0 8 19 -14 40 -24 22 -43 27
-32 8z"/>
<path d="M2590 1192 c0 -26 34 -46 66 -38 42 11 22 41 -34 52 -28 6 -32 4 -32
-14z"/>
<path d="M3096 1193 c-5 -11 -1 -22 10 -30 24 -18 39 -1 25 26 -14 25 -27 27
-35 4z"/>
<path d="M3455 1191 c-3 -10 -2 -26 1 -36 6 -15 8 -15 20 6 7 13 13 30 14 37
0 19 -28 14 -35 -7z"/>
<path d="M3190 1145 c-12 -22 -10 -29 13 -64 15 -23 27 -49 27 -58 0 -10 7
-27 15 -37 8 -11 15 -37 15 -57 0 -40 16 -61 26 -35 3 9 7 43 8 77 1 48 -3 62
-16 70 -11 6 -18 22 -18 41 0 28 -2 30 -26 24 -25 -7 -26 -5 -22 24 6 39 -5
47 -22 15z"/>
<path d="M2515 1140 c-4 -11 -17 -28 -31 -36 -22 -15 -24 -23 -24 -93 0 -101
9 -114 49 -73 39 39 45 85 14 109 -15 11 -14 16 1 56 19 49 19 57 7 57 -5 0
-13 -9 -16 -20z m-5 -151 c-14 -24 -42 -26 -33 -1 4 9 11 20 17 24 17 11 27
-2 16 -23z"/>
<path d="M2762 1136 c-6 -13 -8 -27 -5 -30 7 -7 32 24 33 42 0 20 -16 14 -28
-12z"/>
<path d="M3917 1145 c-10 -9 -24 -32 -32 -51 -7 -18 -26 -46 -40 -61 -56 -59
-71 -149 -37 -213 22 -40 42 -50 42 -21 0 24 20 71 32 72 4 1 13 2 19 3 14 1
20 13 48 79 22 52 44 66 72 49 27 -17 32 -15 25 13 -5 21 -3 25 14 25 18 0 19
3 9 21 -12 23 -35 23 -116 -2 -59 -18 -70 -4 -37 43 29 41 30 72 1 43z m-15
-158 c-38 -39 -39 -44 -11 -43 34 1 33 -21 -1 -32 -20 -8 -34 -21 -41 -42 -11
-29 -32 -40 -43 -21 -3 5 5 25 18 44 20 29 22 37 10 41 -21 8 -1 42 39 66 51
31 65 24 29 -13z"/>
<path d="M3511 1118 c14 -50 12 -61 -11 -55 -15 4 -20 0 -20 -14 0 -10 6 -19
14 -19 24 0 38 -111 15 -126 -20 -12 -29 10 -19 45 9 33 9 33 -10 16 -25 -23
-25 -47 -2 -68 40 -37 66 -16 75 63 3 25 6 46 6 48 1 1 8 2 16 2 8 0 15 6 15
13 0 13 -77 127 -85 127 -2 0 1 -15 6 -32z"/>
<path d="M3093 1118 c-11 -14 -19 -43 -29 -104 -9 -60 -21 -77 -51 -69 -20 5
-24 2 -21 -12 4 -25 49 -28 77 -6 17 14 23 30 25 63 0 26 6 45 14 48 9 3 13
-3 12 -14 -4 -31 -1 -44 9 -44 24 0 13 112 -13 138 -10 11 -15 11 -23 0z"/>
<path d="M3398 1124 c-9 -14 -10 -188 -2 -231 6 -30 8 -34 14 -18 4 11 6 35 4
53 -3 18 2 42 11 56 8 13 13 34 11 47 -3 13 -5 33 -5 45 -1 24 -26 61 -33 48z"/>
<path d="M2989 1108 c-2 -17 2 -42 7 -47 2 -2 10 2 19 9 11 9 12 17 4 31 -11
22 -28 25 -30 7z"/>
<path d="M3340 1085 c0 -15 4 -24 10 -20 6 3 10 12 10 20 0 8 -4 17 -10 20 -6
4 -10 -5 -10 -20z"/>
<path d="M2593 1046 c0 -49 -20 -133 -34 -142 -17 -10 -9 -46 17 -77 17 -20
24 -39 21 -54 -6 -33 10 -28 33 10 20 33 26 58 13 56 -23 -4 -33 3 -33 22 0
16 -4 19 -20 14 -11 -3 -20 -2 -20 4 0 14 29 41 44 41 7 0 21 9 32 21 18 20
18 21 0 34 -11 9 -19 28 -21 50 -1 20 -9 43 -17 51 -14 14 -15 10 -15 -30z"/>
<path d="M2700 1069 c0 -6 -7 -8 -16 -5 -10 4 -14 1 -12 -6 4 -11 13 -17 58
-38 12 -6 15 -24 13 -81 l-2 -74 15 40 c8 22 17 47 20 55 10 28 21 -10 19 -68
-2 -71 11 -122 32 -122 12 0 14 7 9 33 -3 17 -10 59 -15 93 -10 68 -31 116
-69 157 -26 28 -52 36 -52 16z"/>
<path d="M2846 1062 c-3 -6 3 -21 14 -33 19 -24 19 -24 20 -3 0 24 -25 50 -34
36z"/>
<path d="M2929 1024 c-6 -18 -8 -53 -4 -92 6 -52 4 -63 -10 -68 -14 -6 -14 -9
5 -29 15 -16 18 -24 9 -27 -19 -6 -3 -38 19 -38 11 0 26 7 33 17 16 18 16 15
-7 51 -13 20 -18 50 -20 115 -1 49 -5 91 -8 94 -3 3 -10 -7 -17 -23z"/>
<path d="M3626 1033 c-3 -3 -6 -20 -6 -36 0 -29 1 -29 18 -14 26 23 37 21 51
-9 6 -15 14 -24 17 -21 11 11 -7 65 -24 73 -26 11 -49 14 -56 7z"/>
<path d="M3182 965 c2 -22 8 -39 13 -38 17 4 17 37 0 58 -14 19 -15 18 -13
-20z"/>
<path d="M4228 983 c-7 -25 6 -53 14 -31 3 7 2 22 -2 32 -6 19 -7 19 -12 -1z"/>
<path d="M3130 892 c0 -18 4 -32 8 -32 10 0 9 46 -1 56 -4 4 -7 -7 -7 -24z"/>
<path d="M3611 888 c-41 -52 -123 -74 -155 -43 -20 20 -26 19 -26 -6 0 -49 35
-75 60 -44 17 21 47 19 60 -4 18 -34 12 -43 -27 -39 -36 3 -38 2 -41 -29 l-3
-33 28 15 c15 8 40 17 56 20 23 5 26 9 21 30 -4 18 -1 27 10 31 9 3 16 13 16
21 0 8 11 28 25 45 27 31 33 68 13 67 -7 0 -24 -14 -37 -31z"/>
<path d="M3313 883 c-6 -18 -25 -38 -42 -47 -36 -19 -51 -44 -51 -86 0 -35 15
-45 50 -32 17 6 24 17 26 41 1 18 10 41 19 51 11 12 15 32 13 61 l-3 44 -12
-32z"/>
<path d="M2691 863 c0 -29 2 -33 8 -18 7 18 4 55 -5 55 -2 0 -4 -17 -3 -37z"/>
<path d="M3737 872 c-6 -17 -14 -21 -28 -17 -17 6 -19 1 -19 -34 0 -45 -5 -49
-31 -25 -16 14 -18 14 -24 -7 -10 -30 10 -40 54 -25 42 15 64 51 59 99 -3 30
-4 30 -11 9z"/>
<path d="M3180 835 c0 -27 3 -45 7 -42 7 8 6 77 -2 85 -3 3 -5 -16 -5 -43z"/>
<path d="M3050 826 c0 -8 9 -32 21 -53 l21 -38 -22 28 c-26 33 -38 28 -35 -15
3 -29 20 -51 49 -61 16 -6 -6 -41 -28 -45 -22 -5 -45 25 -46 59 0 15 -7 32
-15 39 -12 10 -18 6 -35 -22 -23 -38 -24 -44 -10 -53 6 -3 10 -1 10 4 0 24 22
8 56 -39 33 -46 70 -77 80 -68 2 2 6 22 10 43 3 22 12 48 19 58 17 24 9 82
-19 132 -22 40 -56 60 -56 31z"/>
<path d="M2484 807 c-7 -20 34 -153 53 -168 23 -20 35 8 17 42 -16 32 -18 75
-4 84 22 14 9 23 -20 15 -28 -8 -30 -7 -25 10 7 22 -13 38 -21 17z"/>
<path d="M3370 773 c-26 -54 -28 -83 -5 -99 20 -15 19 -21 -5 -27 -11 -3 -20
-12 -20 -21 0 -21 25 -10 45 20 14 22 24 158 12 170 -2 3 -15 -17 -27 -43z"/>
<path d="M2679 786 c-1 -3 -1 -15 -1 -26 0 -37 2 -46 15 -65 8 -10 18 -15 24
-12 13 8 -9 99 -25 105 -7 2 -12 1 -13 -2z"/>
<path d="M2867 766 c-3 -8 -19 -17 -36 -21 -17 -4 -31 -13 -31 -21 0 -19 -16
-18 -24 1 -11 29 -25 16 -15 -14 12 -34 39 -62 39 -41 0 17 30 39 53 40 10 0
17 -7 17 -19 0 -21 39 -112 41 -96 2 15 -2 76 -7 99 -2 12 -7 36 -10 54 -7 34
-18 42 -27 18z"/>
<path d="M3439 748 c-1 -7 -3 -23 -4 -35 -1 -13 2 -23 6 -23 5 0 9 16 9 35 0
33 -8 50 -11 23z"/>
<path d="M5679 695 c33 -116 96 -256 77 -170 -11 47 -55 160 -71 181 -13 17
-14 16 -6 -11z"/>
<path d="M3265 690 c-10 -11 -26 -22 -35 -25 -46 -15 -17 -90 30 -78 19 5 20
7 6 15 -14 8 -14 11 3 29 19 20 34 79 21 79 -4 0 -15 -9 -25 -20z"/>
<path d="M3588 603 c-42 -17 -50 -33 -15 -33 21 0 87 34 87 45 0 10 -35 4 -72
-12z"/>
<path d="M2545 600 c-28 -46 230 -357 409 -491 82 -63 176 -116 176 -100 0 5
-44 43 -98 84 -55 42 -132 106 -171 144 -91 84 -217 233 -239 282 -34 75 -62
105 -77 81z"/>
<path d="M2960 582 c-13 -10 -21 -24 -19 -31 3 -9 12 -6 32 9 27 21 35 40 18
40 -5 0 -19 -8 -31 -18z"/>
<path d="M3380 496 c0 -20 28 -46 49 -46 10 0 25 7 32 16 12 15 11 16 -7 10
-14 -4 -30 1 -47 15 -21 16 -27 17 -27 5z"/>
<path d="M3527 496 c-7 -18 17 -28 32 -13 16 16 13 27 -8 27 -10 0 -21 -6 -24
-14z"/>
<path d="M5766 416 c7 -38 31 -102 65 -171 36 -72 52 -79 95 -42 l28 24 -44
-1 c-51 -1 -53 1 -101 132 -29 78 -53 110 -43 58z"/>
<path d="M2576 388 c63 -101 314 -381 328 -367 10 9 -156 207 -331 396 -24 26
-22 12 3 -29z"/>
<path d="M2409 390 c-3 -14 -4 -90 -3 -170 2 -212 3 -218 14 -200 11 17 11
329 0 370 l-6 25 -5 -25z"/>
<path d="M1745 388 c-8 -20 23 -134 40 -148 9 -7 16 -6 24 4 10 12 8 19 -8 35
-12 12 -21 24 -22 29 -3 37 -9 64 -18 79 -9 16 -10 17 -16 1z"/>
<path d="M4816 323 c-63 -107 -160 -302 -154 -309 3 -3 22 21 42 53 48 76 170
322 163 329 -3 3 -26 -29 -51 -73z"/>
<path d="M6539 385 c0 -5 -2 -18 -4 -27 -2 -10 0 -18 5 -18 13 0 19 26 9 41
-5 8 -9 10 -10 4z"/>
<path d="M6230 270 c0 -11 5 -20 10 -20 6 0 10 9 10 20 0 11 -4 20 -10 20 -5
0 -10 -9 -10 -20z"/>
<path d="M5885 103 c7 -31 45 -96 51 -90 6 5 -44 117 -52 117 -3 0 -3 -12 1
-27z"/>
<path d="M5177 102 c-13 -14 -15 -22 -7 -27 16 -10 33 9 28 30 -3 16 -5 15
-21 -3z"/>
</g>
</svg>
