<?xml version="1.0" standalone="no"?>
<!DOCTYPE svg PUBLIC "-//W3C//DTD SVG 20010904//EN"
 "http://www.w3.org/TR/2001/REC-SVG-20010904/DTD/svg10.dtd">
<svg version="1.0" xmlns="http://www.w3.org/2000/svg"
 width="60.000000pt" height="60.000000pt" viewBox="0 0 300.000000 300.000000"
 preserveAspectRatio="xMidYMid meet">
<metadata>
</metadata>
<g transform="translate(0.000000,300.000000) scale(0.100000,-0.100000)"
fill="#000000" stroke="none">
<path d="M1000 2530 c-75 -13 -178 -67 -163 -85 5 -4 3 -5 -4 -1 -7 4 -35 -3
-62 -15 -38 -16 -48 -25 -44 -37 4 -10 3 -14 -1 -10 -22 19 -108 -66 -108
-107 0 -14 -4 -22 -8 -20 -9 5 -21 -19 -26 -50 -1 -11 -6 -41 -10 -67 -3 -27
-9 -48 -13 -48 -3 0 -6 -17 -6 -38 0 -20 -3 -48 -8 -61 -9 -27 9 -199 22 -216
9 -11 18 -70 26 -175 3 -36 8 -77 10 -91 5 -20 0 -28 -20 -39 -26 -14 -33 -34
-15 -45 6 -3 10 -50 10 -103 1 -72 6 -111 21 -152 11 -30 28 -74 36 -98 12
-32 25 -48 53 -62 36 -18 38 -23 59 -112 27 -119 76 -220 138 -289 51 -55 123
-155 123 -169 0 -5 -29 -18 -65 -30 -67 -22 -289 -109 -450 -175 -49 -20 -117
-48 -150 -61 -110 -45 -201 -101 -223 -139 -17 -28 -19 -35 -6 -35 8 0 17 7
20 15 7 18 103 90 110 82 3 -3 17 6 31 19 15 14 33 22 40 20 7 -3 13 -1 13 5
0 6 7 8 16 5 8 -3 13 -2 9 3 -3 5 18 14 47 20 28 7 56 15 62 20 20 16 154 69
160 64 3 -4 6 -1 6 5 0 6 19 16 43 23 23 6 44 15 47 19 3 4 16 10 30 11 14 2
28 7 31 12 3 4 16 9 28 12 12 2 47 13 78 25 30 11 58 18 63 15 5 -3 10 -1 12
4 1 5 10 11 18 13 8 2 18 7 21 11 3 5 9 0 11 -11 4 -16 1 -19 -16 -15 -19 3
-19 3 2 -7 20 -8 21 -12 11 -32 -11 -21 -11 -22 4 -9 16 13 25 2 10 -12 -3 -4
-7 -26 -8 -49 -1 -24 -13 -72 -27 -108 -27 -67 -48 -173 -31 -155 5 6 20 48
33 95 13 47 28 88 33 92 15 10 22 177 8 191 -14 14 -15 51 -1 42 6 -3 10 1 10
9 0 9 -5 16 -11 16 -5 0 -8 4 -5 9 3 5 -1 14 -9 21 -19 16 -19 31 0 24 8 -4
12 -10 9 -15 -3 -5 0 -9 5 -9 17 0 13 18 -6 29 -10 5 -15 13 -10 17 4 4 15 0
25 -9 17 -15 18 -15 19 6 0 12 -1 16 -4 9 -4 -10 -8 -10 -20 0 -12 10 -18 9
-28 -5 -13 -18 -32 -7 -21 12 3 5 -2 11 -12 13 -10 3 -19 12 -19 21 0 9 4 14
9 11 5 -3 5 -10 2 -16 -4 -6 -2 -8 4 -5 5 4 8 16 5 27 -4 16 -9 18 -24 9 -15
-7 -19 -6 -19 6 0 8 -5 15 -12 15 -6 0 -9 3 -5 6 10 10 -13 61 -27 61 -8 0
-12 -6 -9 -14 3 -7 10 -10 16 -6 6 3 7 1 3 -6 -6 -9 -11 -9 -22 0 -16 13 -19
39 -5 39 5 0 -4 33 -21 73 -37 88 -43 102 -57 147 -10 35 -10 34 -5 -10 4 -31
2 -41 -5 -31 -8 13 -9 81 -1 116 1 6 2 21 1 35 -1 18 -4 21 -10 12 -4 -8 -6
-29 -4 -49 2 -24 0 -32 -8 -28 -6 4 -8 16 -6 26 4 13 1 19 -8 17 -8 -2 -14 2
-14 7 -1 6 4 10 11 10 6 0 13 6 16 14 3 8 0 11 -7 7 -7 -5 -11 1 -11 14 0 13
-4 19 -11 14 -7 -4 -10 -1 -7 7 3 8 -2 23 -11 34 -14 17 -14 18 0 7 25 -19 31
-2 6 19 -12 10 -19 18 -14 19 4 0 -2 9 -13 20 -12 12 -18 25 -15 30 10 17 -2
11 -16 -7 -7 -10 -9 -14 -4 -10 5 4 17 -11 26 -35 23 -56 23 -67 -1 -65 -11 1
-20 6 -20 12 0 5 -4 4 -9 -3 -7 -11 -9 -11 -14 0 -3 7 -12 30 -21 50 -20 47
-13 50 10 6 10 -18 19 -27 21 -21 3 7 -4 25 -15 40 -10 16 -22 39 -25 53 -7
28 11 140 23 140 11 0 42 -79 35 -90 -3 -4 -2 -16 2 -26 6 -16 7 -16 20 2 7
10 13 23 13 28 0 6 -5 4 -11 -4 -8 -12 -10 -10 -6 10 2 14 8 33 12 43 4 10 3
17 -5 17 -6 0 -8 -4 -5 -10 3 -5 1 -10 -5 -10 -6 0 -10 8 -8 18 2 9 9 16 15
15 6 -1 11 27 12 70 1 40 6 73 10 75 14 5 1 40 -17 47 -13 5 -14 4 -5 -6 13
-13 7 -97 -8 -114 -5 -5 -9 -24 -9 -42 0 -18 -4 -33 -9 -33 -5 0 -25 18 -45
41 -30 32 -35 43 -25 55 18 22 26 17 39 -21 16 -49 30 -53 27 -6 -1 21 -5 37
-9 34 -5 -2 -9 11 -9 29 -3 58 -4 63 -12 76 -5 7 -4 12 2 12 6 0 7 8 2 22 -8
23 6 77 24 91 6 4 -1 6 -15 5 -27 -3 -42 29 -20 42 9 6 7 13 -9 26 -11 10 -21
26 -21 34 0 9 -6 22 -12 29 -11 11 -9 11 12 2 l25 -12 -22 17 c-28 20 -31 72
-5 100 10 10 19 24 20 29 1 6 6 10 11 10 5 0 12 3 16 7 4 3 0 5 -9 4 -9 -1
-22 -8 -28 -14 -15 -15 -31 -16 -22 -1 4 6 8 28 9 48 5 70 4 68 16 51 9 -12
10 -11 6 7 -3 13 -1 26 4 29 5 3 7 9 4 14 -3 5 0 12 6 16 8 5 9 3 4 -7 -7 -11
-5 -11 11 1 29 22 30 24 13 18 -9 -4 -16 -1 -16 7 0 15 96 12 124 -3 12 -7 1
-9 -37 -6 -42 2 -51 1 -37 -7 10 -6 25 -8 33 -5 9 3 24 1 35 -4 13 -7 19 -7
19 0 0 5 5 10 10 10 6 0 10 -6 10 -14 0 -7 13 -19 29 -26 16 -6 37 -20 47 -31
9 -10 22 -19 27 -19 6 0 1 9 -11 20 -12 12 -22 26 -22 32 0 7 15 -1 33 -18
l32 -29 -28 31 c-20 22 -36 30 -53 28 -22 -2 -23 0 -12 13 12 15 10 15 -11 4
-19 -11 -22 -11 -15 1 13 20 13 37 2 44 -16 10 -22 -4 -8 -21 7 -8 8 -15 2
-15 -13 0 -33 25 -25 33 7 7 -59 37 -79 36 -7 0 7 -8 31 -18 24 -10 40 -20 35
-23 -15 -7 -96 17 -87 27 4 5 0 3 -9 -4 -10 -7 -23 -11 -30 -8 -8 3 -2 10 15
17 15 7 27 19 27 25 0 7 10 15 23 18 21 6 21 6 3 -8 -11 -8 -15 -15 -10 -15 6
0 18 6 28 13 18 13 18 14 2 20 -16 6 -16 9 -2 22 8 8 20 15 26 15 6 0 8 5 5
10 -3 6 2 10 13 10 10 0 24 11 30 25 6 14 16 25 22 25 6 0 9 4 5 9 -3 6 3 15
14 20 31 17 33 13 10 -19 -12 -16 -25 -28 -28 -26 -3 2 -7 -15 -9 -39 -2 -35
1 -46 17 -54 36 -20 46 -11 16 14 -16 13 -26 27 -23 30 3 4 21 -7 40 -24 18
-17 27 -31 20 -31 -7 0 -10 -4 -7 -10 8 -12 5 -12 -31 0 -19 7 -39 7 -59 0
-29 -10 -29 -10 8 -6 20 3 37 1 37 -5 0 -5 3 -8 8 -7 15 4 52 -14 46 -23 -3
-5 0 -8 7 -7 6 2 14 -3 16 -9 3 -8 -17 -3 -49 12 -29 14 -64 25 -78 25 -19 0
-12 -6 28 -25 29 -14 51 -29 47 -35 -6 -9 8 -14 28 -11 5 1 6 -3 3 -8 -4 -5 3
-12 14 -16 11 -4 17 -11 14 -17 -5 -8 -1 -9 10 -5 10 4 15 3 11 -3 -3 -5 3
-15 14 -22 16 -10 18 -15 8 -27 -7 -8 -7 -12 -2 -9 13 7 30 -11 31 -34 2 -22
-19 -23 -36 -3 -7 8 -9 15 -5 15 5 0 0 9 -10 20 -10 11 -23 20 -29 20 -6 -1 0
-10 13 -20 38 -32 15 -23 -39 15 -51 36 -66 43 -55 25 3 -5 2 -10 -4 -10 -5 0
-12 4 -15 9 -3 5 -15 11 -26 14 -11 3 -18 1 -14 -4 3 -5 0 -9 -5 -9 -6 0 -11
4 -11 9 0 9 -41 23 -48 17 -2 -2 9 -10 25 -18 15 -8 42 -22 58 -32 l30 -18
-25 21 c-14 11 -20 21 -15 21 17 0 56 -31 50 -40 -3 -4 3 -6 12 -4 27 5 129
-48 125 -66 -3 -12 0 -12 15 1 10 9 25 14 33 12 12 -3 12 -2 2 5 -11 7 -11 11
0 20 7 5 20 12 28 14 19 4 39 21 34 30 -9 14 14 17 26 3 16 -19 37 -19 37 0 0
8 -3 12 -7 10 -4 -2 -31 20 -60 50 -30 30 -50 55 -44 55 6 0 23 -13 38 -29 18
-19 36 -28 48 -26 12 3 18 1 14 -2 -3 -4 5 -19 20 -34 14 -14 27 -35 28 -44 2
-11 13 -20 27 -22 19 -2 21 -1 9 7 -16 10 -8 14 24 10 17 -2 17 0 5 13 -33 34
-104 120 -104 126 0 14 -79 136 -113 173 -19 21 -30 38 -25 38 11 0 108 -101
131 -135 8 -12 5 -10 -7 4 -13 14 -21 18 -21 10 1 -8 14 -29 30 -48 16 -19 26
-39 23 -44 -3 -6 -1 -7 4 -4 12 8 36 -17 26 -26 -3 -4 -1 -7 5 -7 7 0 11 -5
10 -11 -2 -7 16 -27 39 -45 24 -18 39 -34 35 -37 -4 -2 -2 -3 4 -1 6 1 16 -2
22 -8 6 -6 12 -6 17 1 4 7 -6 17 -24 24 -17 7 -29 16 -26 20 3 4 2 5 -1 3 -9
-6 -45 34 -40 43 3 5 -4 17 -15 27 -11 10 -42 64 -69 120 -26 56 -53 105 -60
109 -10 6 -11 4 -4 -6 17 -28 13 -42 -7 -23 -13 12 -16 21 -9 29 6 7 8 19 4
28 -8 21 11 30 26 12 10 -12 10 -15 0 -15 -7 0 2 -16 19 -35 17 -20 31 -40 31
-45 0 -5 6 -7 14 -4 9 4 13 -2 11 -20 -2 -14 4 -31 13 -38 15 -11 15 -11 5 3
-16 19 -5 33 14 18 21 -18 15 -5 -11 26 -14 16 -22 34 -19 39 3 6 0 6 -7 -1
-11 -10 -18 -6 -36 18 -12 17 -21 36 -18 43 3 7 -7 23 -21 36 -23 21 -25 22
-19 5 7 -17 5 -18 -8 -8 -8 7 -18 10 -22 6 -4 -4 -25 -6 -48 -4 -24 2 -38 -1
-34 -7 3 -5 -5 -13 -18 -16 -13 -3 -32 -8 -43 -12 -11 -3 -8 1 7 11 18 12 19
14 5 10 -11 -4 -29 -8 -40 -10 -11 -1 -23 -3 -27 -4 -5 0 -27 -19 -50 -41 -24
-22 -55 -51 -71 -65 -15 -15 -25 -30 -22 -36 4 -5 -4 -9 -17 -9 -25 0 -64 -51
-54 -69 3 -5 -3 -20 -14 -32 l-20 -24 6 30 c12 55 45 107 102 162 31 30 48 50
37 45 -11 -6 -29 -20 -40 -32 -11 -12 -33 -31 -50 -43 l-30 -20 28 29 c15 17
25 33 22 37 -3 4 -2 5 1 3 3 -2 21 6 40 19 20 13 42 21 50 18 8 -3 14 1 14 10
0 24 104 60 184 63 37 2 71 5 74 8 6 7 1 7 -73 8 -27 1 -61 -2 -75 -6 -21 -7
-23 -6 -12 5 7 7 32 14 56 14 24 0 42 3 39 8 -6 10 11 9 42 -3 17 -6 24 -6 20
0 -3 5 -20 14 -38 18 l-32 9 48 8 c26 4 65 4 85 0 20 -4 46 -7 57 -6 15 0 16
-2 6 -9 -8 -4 -21 -6 -30 -3 -14 4 -14 3 -1 -5 8 -6 18 -9 22 -6 12 8 49 -16
43 -27 -4 -5 -3 -8 2 -7 17 6 219 -169 253 -219 9 -12 25 -30 35 -40 11 -10
21 -25 23 -33 3 -11 -1 -11 -16 3 -10 9 -22 14 -25 10 -4 -3 -7 0 -7 7 0 11
-3 11 -12 2 -10 -10 -10 -15 2 -22 13 -9 13 -10 0 -10 -9 0 -11 -3 -5 -8 6 -4
25 -26 43 -49 l33 -42 -43 2 c-24 1 -46 7 -50 12 -5 6 -8 6 -8 -2 0 -6 5 -15
10 -18 6 -4 8 -10 6 -14 -3 -4 5 -8 16 -8 20 -2 20 -1 2 13 -18 14 -17 15 11
9 17 -3 37 -7 45 -8 8 -1 18 -6 22 -11 3 -5 14 -11 23 -12 18 -3 13 6 -29 54
-11 12 -16 22 -12 22 4 0 -6 11 -23 25 -16 14 -28 32 -25 39 4 10 18 2 47 -25
29 -27 48 -37 61 -33 15 5 18 3 13 -10 -4 -11 -3 -15 4 -10 6 4 15 0 20 -7 5
-8 9 -9 9 -3 0 6 -15 27 -34 47 -19 20 -37 42 -40 49 -3 7 -4 0 -1 -17 5 -28
4 -29 -10 -11 -8 10 -12 22 -10 26 6 9 -74 102 -143 167 -31 29 -53 55 -49 59
7 7 150 -114 155 -131 6 -20 76 -84 85 -78 7 4 8 -1 3 -13 -4 -10 -4 -15 0
-11 4 4 19 -3 32 -15 30 -28 18 -4 -17 34 -14 15 -29 24 -35 21 -5 -4 -7 1 -3
10 4 12 -15 36 -70 84 -41 37 -80 67 -85 65 -5 -1 -6 2 -3 8 4 7 -3 22 -16 36
-12 13 -19 24 -15 24 4 0 40 -35 81 -77 40 -43 76 -75 80 -71 3 3 -19 31 -49
61 -31 30 -56 59 -56 63 0 5 -28 26 -63 47 -49 30 -56 32 -32 11 32 -29 45
-67 19 -57 -21 8 -64 74 -57 87 4 6 -2 4 -12 -4 -15 -12 -17 -12 -10 -1 6 11
4 13 -9 8 -10 -4 -15 -3 -11 3 3 6 -1 10 -9 10 -28 0 -17 -17 39 -60 31 -24
53 -45 50 -48 -3 -3 -14 3 -26 14 -12 10 -24 19 -28 18 -3 0 -21 14 -38 31
-23 22 -30 35 -23 43 7 9 7 9 -2 2 -13 -11 -35 -14 -25 -3 4 3 1 13 -6 21 -10
13 -9 14 8 5 11 -6 31 -9 45 -7 28 3 125 -32 155 -56 19 -15 69 -40 82 -40 3
0 -22 18 -55 40 -33 22 -64 40 -70 40 -6 0 -13 4 -17 10 -8 13 56 -10 80 -29
19 -15 19 -15 5 3 -14 18 -13 19 5 11 11 -4 31 -8 44 -8 15 1 19 -2 12 -7 -9
-5 -4 -9 13 -12 14 -3 27 -1 28 4 2 5 15 1 28 -10 14 -10 32 -17 40 -14 12 3
12 2 3 -8 -9 -10 -18 -10 -40 -2 -15 7 -38 13 -50 15 -12 2 -26 6 -29 10 -10
10 -34 9 -34 -2 0 -5 14 -12 31 -16 17 -4 28 -9 25 -13 -3 -3 0 -12 7 -20 10
-13 9 -14 -9 -8 -14 4 -26 1 -34 -9 -9 -10 -9 -15 -2 -13 6 2 27 -18 45 -44
19 -26 37 -45 41 -43 3 3 4 2 1 -1 -6 -9 50 -90 74 -106 10 -7 24 -24 31 -38
l13 -24 8 23 c6 14 5 31 -3 44 -11 21 -11 21 -19 2 -8 -17 -8 -17 -7 5 3 26
-36 90 -53 90 -6 0 -7 -6 -4 -12 3 -7 -4 1 -17 17 -13 17 -41 47 -62 68 -22
20 -35 37 -30 37 13 0 64 -38 105 -77 17 -18 36 -30 41 -27 4 3 9 0 9 -5 3
-23 5 -27 22 -51 9 -13 17 -21 17 -16 0 5 6 3 14 -4 8 -6 12 -19 9 -28 -3 -9
4 -3 16 13 11 17 21 41 21 55 0 18 -3 21 -9 11 -5 -8 -11 -9 -15 -3 -9 15 17
32 34 22 8 -6 26 -10 40 -11 l25 -1 -25 -8 -25 -7 27 -8 c16 -4 35 -4 43 -1 9
3 14 2 11 -3 -3 -4 3 -16 14 -26 11 -10 17 -21 15 -25 -3 -4 2 -10 10 -14 8
-3 15 -10 15 -16 0 -6 -11 -3 -25 7 -13 10 -23 23 -20 30 2 7 -2 10 -10 6 -18
-6 -11 -18 32 -56 24 -21 30 -32 22 -38 -9 -5 -6 -15 10 -35 12 -16 19 -30 14
-31 -11 -4 -4 -134 8 -149 4 -6 7 -28 5 -50 -2 -21 0 -44 6 -51 6 -7 5 -14 -2
-18 -7 -4 -7 -13 1 -27 8 -15 8 -19 0 -14 -7 5 -11 -3 -11 -21 0 -19 3 -24 9
-14 7 10 12 9 23 -8 18 -26 12 -67 -10 -76 -9 -3 -13 -3 -10 1 4 3 1 19 -8 35
-15 30 -28 40 -18 15 3 -8 1 -17 -4 -20 -5 -3 -10 0 -9 7 1 32 -4 47 -15 44
-7 -1 -12 4 -10 11 1 8 -2 11 -9 6 -8 -4 -9 1 -5 17 5 18 5 20 -3 8 -12 -19
-3 -59 14 -59 7 0 15 -14 19 -31 4 -20 10 -28 17 -23 7 4 9 3 6 -3 -4 -6 0
-19 8 -29 8 -10 15 -32 16 -49 1 -22 3 -24 6 -10 3 11 10 23 15 26 6 4 11 18
11 32 0 26 20 42 38 31 5 -3 9 0 9 5 0 6 -4 11 -9 11 -18 0 -40 95 -50 210
-20 227 -24 256 -43 300 -33 77 -67 119 -103 126 -22 4 -59 31 -116 85 -46 44
-96 86 -110 94 -43 23 -142 54 -174 53 -16 0 -64 5 -105 11 -86 12 -215 12
-280 1z m534 -106 c9 -8 16 -12 16 -8 0 5 5 3 12 -4 17 -17 33 -15 18 3 -28
34 9 11 64 -39 46 -42 57 -58 51 -73 -7 -16 -9 -15 -19 8 -14 33 -36 59 -49
59 -5 0 -2 -9 7 -19 10 -11 15 -24 12 -29 -3 -5 1 -15 9 -22 8 -7 15 -17 15
-23 0 -5 8 -16 18 -23 11 -9 13 -13 4 -14 -7 0 -10 -4 -7 -10 3 -5 4 -10 1
-10 -11 0 -55 98 -48 105 4 5 1 5 -5 1 -10 -6 -10 -15 2 -43 17 -40 15 -52 -5
-28 -7 8 -10 15 -6 15 4 0 0 13 -8 29 -9 16 -12 32 -8 36 4 5 1 5 -6 1 -7 -5
-11 -15 -7 -25 3 -9 -5 -4 -17 11 -13 16 -38 39 -57 53 -19 14 -30 25 -25 25
6 0 11 6 11 14 0 8 -6 12 -15 8 -10 -3 -13 -1 -8 6 10 17 32 15 50 -4z m-481
-13 c-5 -3 -9 -15 -9 -26 0 -21 -4 -21 -69 1 l-40 14 53 -6 c29 -2 52 -1 51 3
-4 21 2 34 12 27 6 -3 7 -9 2 -13z m-40 2 c-7 -2 -19 -2 -25 0 -7 3 -2 5 12 5
14 0 19 -2 13 -5z m358 -40 c13 -16 12 -17 -3 -4 -10 7 -18 15 -18 17 0 8 8 3
21 -13z m-375 -34 c27 -25 96 -122 106 -149 3 -8 29 -46 58 -84 46 -62 50 -70
36 -84 -14 -14 -15 -14 -11 6 2 12 -2 25 -8 29 -7 5 -20 22 -29 38 -9 17 -20
30 -25 30 -18 0 -34 18 -29 31 3 7 -4 20 -15 28 -11 7 -40 40 -63 72 -50 68
-72 89 -105 99 l-24 7 22 -31 c13 -17 26 -29 30 -26 9 5 77 -76 74 -87 -2 -4
8 -15 22 -24 14 -9 22 -20 19 -25 -3 -5 -1 -9 4 -9 5 0 18 -12 27 -27 31 -49
-62 46 -102 105 -20 28 -38 50 -41 47 -3 -2 1 -11 7 -19 7 -8 8 -16 4 -19 -11
-7 -34 19 -25 28 4 4 0 5 -8 3 -8 -1 -15 4 -15 12 -1 8 -7 24 -14 35 -9 15
-11 16 -7 3 7 -22 -12 -24 -21 -3 -17 45 89 56 133 14z m-58 -24 c-3 -3 -9 2
-12 12 -6 14 -5 15 5 6 7 -7 10 -15 7 -18z m-46 -9 c7 4 8 3 4 -4 -4 -6 9 -33
29 -60 40 -56 42 -64 18 -55 -17 6 -17 6 -1 -10 9 -9 22 -33 28 -53 7 -19 14
-33 16 -31 3 2 0 15 -5 29 -7 18 -6 25 4 25 7 0 11 -6 8 -13 -2 -6 1 -15 6
-19 6 -3 9 -11 6 -16 -4 -5 -1 -9 4 -9 6 0 11 -6 11 -14 0 -8 9 -21 20 -29 18
-13 19 -15 5 -21 -9 -3 -21 -3 -26 0 -5 3 -8 0 -7 -7 2 -6 -3 -14 -11 -17 -9
-3 -11 0 -6 8 5 8 2 18 -6 24 -8 6 -14 17 -15 24 -4 48 -4 48 -15 32 -8 -12
-9 -10 -4 9 5 14 3 21 -3 17 -5 -3 -12 8 -15 24 -4 16 -17 39 -31 51 -14 13
-22 28 -19 36 5 12 10 11 24 -8 10 -13 19 -18 19 -11 0 7 -22 35 -50 62 -55
54 -64 71 -25 46 14 -9 31 -14 37 -10z m701 -67 c3 -12 10 -18 15 -15 6 4 8
-2 5 -14 -5 -20 -6 -19 -19 5 -7 14 -16 29 -19 35 -3 5 -2 10 3 10 5 0 12 -9
15 -21z m-625 4 c-2 -5 8 -23 22 -41 14 -19 25 -37 25 -42 0 -5 9 -19 20 -32
32 -39 45 -67 35 -73 -5 -3 -14 5 -21 17 -6 13 -20 32 -30 43 -10 11 -18 25
-18 30 -1 6 -5 11 -11 11 -5 1 -14 2 -20 3 -5 0 -10 6 -10 12 0 8 5 8 15 -1
21 -18 19 -3 -6 31 -11 16 -17 33 -14 39 7 12 16 13 13 3z m568 -24 c4 -8 1
-8 -14 0 -12 6 -24 16 -28 22 -4 8 -1 8 14 0 12 -6 24 -16 28 -22z m114 -49
c0 -5 -4 -10 -10 -10 -5 0 -10 5 -10 10 0 6 5 10 10 10 6 0 10 -4 10 -10z
m-1026 -520 c-6 -6 -10 -3 -10 10 0 13 4 16 10 10 7 -7 7 -13 0 -20z m-27
-347 c-3 -10 -5 -2 -5 17 0 19 2 27 5 18 2 -10 2 -26 0 -35z m124 -244 c12
-20 11 -26 -7 -33 -19 -7 -54 20 -54 41 0 18 48 12 61 -8z m88 -244 c7 -25 11
-49 7 -52 -3 -4 -6 3 -6 14 0 12 -5 23 -11 25 -13 4 -22 58 -11 58 4 0 14 -20
21 -45z m42 -82 c6 -16 6 -30 1 -35 -6 -6 -11 4 -14 26 -5 43 -1 46 13 9z"/>
<path d="M1550 2400 c0 -7 -7 -10 -15 -6 -23 9 -18 0 13 -20 23 -15 25 -15 13
-1 -7 9 -9 17 -3 17 11 0 30 -21 31 -35 1 -5 7 -10 14 -10 6 -1 11 -7 9 -15
-3 -12 -1 -12 9 -3 10 10 9 17 -6 33 -11 12 -13 20 -6 20 7 0 9 5 6 10 -3 6
-11 10 -16 10 -6 0 -7 -4 -4 -10 10 -16 -7 -12 -27 7 -12 11 -18 12 -18 3z"/>
<path d="M970 2335 c13 -14 26 -25 28 -25 3 0 -5 11 -18 25 -13 14 -26 25 -28
25 -3 0 5 -11 18 -25z"/>
<path d="M1015 2498 c11 -6 29 -18 40 -27 20 -16 20 -16 0 8 l-20 24 33 -6
c18 -4 32 -2 32 3 0 6 -24 10 -52 10 -44 -1 -50 -2 -33 -12z"/>
<path d="M1084 2466 c1 -8 6 -19 11 -23 4 -5 5 -2 0 6 -15 26 23 4 113 -66 48
-38 102 -84 121 -103 19 -19 41 -34 49 -32 8 2 11 -1 8 -6 -3 -5 4 -22 16 -37
28 -36 45 -13 18 25 -37 52 -94 100 -102 87 -6 -9 -8 -9 -8 0 0 7 -18 24 -40
38 -23 14 -38 30 -35 35 3 4 -8 18 -24 29 -32 23 -46 27 -35 9 4 -6 3 -8 -4
-4 -6 3 -9 14 -7 24 2 11 -3 18 -13 18 -10 1 -29 4 -44 8 -21 6 -26 5 -24 -8z
m132 -61 c10 -8 15 -14 9 -14 -5 0 -19 6 -29 14 -11 8 -15 15 -10 15 6 0 19
-7 30 -15z m135 -116 c11 -11 19 -23 17 -25 -3 -2 -15 7 -28 21 -28 30 -19 34
11 4z m64 -69 c10 -11 16 -20 13 -20 -3 0 -13 9 -23 20 -10 11 -16 20 -13 20
3 0 13 -9 23 -20z"/>
<path d="M1127 2408 c7 -8 9 -19 5 -23 -4 -5 -2 -5 5 -1 8 4 22 -8 37 -32 13
-21 31 -45 38 -53 8 -8 15 -18 16 -23 2 -10 20 -16 61 -20 14 -2 27 -8 29 -15
3 -9 -2 -11 -17 -6 -12 4 -21 2 -21 -4 0 -6 9 -11 19 -11 20 0 65 -52 55 -63
-3 -3 8 -8 25 -12 17 -4 33 -11 36 -16 4 -5 -3 -6 -17 0 -13 4 -36 11 -53 15
l-30 7 30 -21 c17 -11 36 -18 43 -15 6 2 12 0 12 -5 0 -5 7 -7 15 -4 8 4 15 1
15 -5 0 -6 -6 -11 -12 -11 -7 0 -5 -5 5 -11 11 -7 23 -7 35 0 16 10 16 10 0
11 -10 0 -18 6 -18 14 0 7 -6 19 -14 26 -8 6 -13 17 -10 24 5 13 -49 66 -67
66 -5 0 -9 6 -9 13 0 7 -19 32 -43 55 -49 48 -81 58 -45 13 13 -15 27 -26 32
-23 5 3 6 -1 1 -8 -6 -10 -10 -10 -20 3 -8 11 -16 13 -23 7 -9 -7 -9 -7 -2 2
7 8 3 19 -13 37 -12 13 -16 21 -9 17 6 -4 12 -3 12 2 0 5 -26 26 -57 47 -32
21 -52 32 -46 23z m278 -256 c-3 -3 -6 -3 -7 -1 -2 2 -14 18 -28 34 l-25 30
32 -29 c18 -16 31 -32 28 -34z"/>
<path d="M792 2275 c0 -16 2 -22 5 -12 2 9 2 23 0 30 -3 6 -5 -1 -5 -18z"/>
<path d="M766 2271 c-4 -7 -5 -15 -2 -18 9 -9 19 4 14 18 -4 11 -6 11 -12 0z"/>
<path d="M1192 2228 c-7 -7 -7 -14 -1 -22 6 -6 19 -26 30 -44 11 -18 23 -30
28 -27 5 3 12 1 15 -4 4 -5 1 -13 -5 -17 -8 -5 -9 -3 -4 6 6 9 4 11 -5 5 -16
-10 34 -60 70 -70 22 -7 23 -6 11 8 -7 9 -17 15 -21 12 -4 -2 -15 2 -25 9 -13
9 -15 15 -7 20 7 4 12 2 12 -4 0 -7 6 -10 14 -7 8 3 22 -3 32 -14 9 -10 24
-19 33 -18 12 0 11 3 -4 9 -12 5 -14 9 -6 9 11 1 10 5 -4 15 -11 8 -22 13 -25
11 -15 -9 -140 109 -128 120 9 9 48 -27 42 -37 -4 -7 -2 -8 5 -4 9 6 9 11 0
22 -20 25 -45 34 -57 22z"/>
<path d="M1240 2236 c0 -2 7 -7 16 -10 8 -3 12 -2 9 4 -6 10 -25 14 -25 6z"/>
<path d="M1780 2236 c0 -2 7 -7 16 -10 8 -3 12 -2 9 4 -6 10 -25 14 -25 6z"/>
<path d="M1712 2203 c-6 -2 -10 -9 -7 -13 3 -5 -4 -14 -15 -20 -11 -6 -18 -15
-14 -21 3 -5 0 -16 -6 -24 -6 -8 -9 -18 -6 -24 3 -5 -4 -7 -16 -5 -17 3 -16 1
5 -7 15 -6 25 -15 21 -20 -3 -5 1 -9 9 -9 7 0 24 -11 37 -25 13 -14 28 -25 33
-25 6 0 20 -8 31 -17 15 -13 14 -10 -3 10 -14 15 -30 27 -37 27 -15 0 -39 28
-31 37 4 3 15 0 24 -8 16 -12 17 -12 6 2 -7 9 -11 18 -8 21 3 2 -6 15 -20 28
-29 28 -32 40 -7 40 14 0 15 2 2 10 -15 10 -10 13 25 12 18 -1 18 0 2 5 -11 3
-16 11 -13 19 3 8 4 14 3 13 -1 0 -8 -3 -15 -6z m0 -104 c16 -9 18 -13 7 -20
-14 -8 -39 6 -39 22 0 12 7 11 32 -2z"/>
<path d="M1283 2184 c6 -7 26 -15 42 -18 l30 -6 -28 13 c-15 7 -25 15 -23 18
3 3 -4 5 -14 5 -16 0 -17 -3 -7 -12z"/>
<path d="M1765 2190 c3 -5 8 -10 11 -10 2 0 4 5 4 10 0 6 -5 10 -11 10 -5 0
-7 -4 -4 -10z"/>
<path d="M1272 2164 c10 -10 20 -16 22 -13 3 3 -5 11 -17 18 -21 13 -21 12 -5
-5z"/>
<path d="M1770 2156 c0 -2 7 -7 16 -10 8 -3 12 -2 9 4 -6 10 -25 14 -25 6z"/>
<path d="M1722 2143 c-10 -4 -5 -11 15 -24 15 -10 28 -22 28 -27 0 -5 12 -19
26 -33 37 -35 62 -76 50 -83 -5 -4 -14 2 -20 11 -10 16 -10 16 -8 -4 5 -35 13
-36 36 -7 23 29 21 57 -6 84 -13 12 -12 10 1 -17 23 -46 20 -53 -8 -18 -17 21
-21 35 -15 46 8 16 3 29 -13 29 -4 0 -8 -7 -8 -15 0 -9 -6 -12 -16 -8 -10 4
-12 8 -5 12 6 4 -2 14 -19 25 -17 9 -28 22 -25 27 7 10 6 10 -13 2z"/>
<path d="M1811 2147 c2 -1 13 -9 24 -17 19 -14 19 -14 6 3 -7 9 -18 17 -24 17
-6 0 -8 -1 -6 -3z"/>
<path d="M660 2116 c0 -17 23 -20 55 -6 19 8 19 9 -2 9 -12 1 -28 4 -37 7 -11
4 -16 1 -16 -10z"/>
<path d="M775 2095 c21 -8 41 -12 44 -10 5 6 -47 25 -67 25 -9 -1 1 -7 23 -15z"/>
<path d="M1830 2106 c0 -2 7 -9 15 -16 13 -11 14 -10 9 4 -5 14 -24 23 -24 12z"/>
<path d="M628 2093 c7 -3 16 -2 19 1 4 3 -2 6 -13 5 -11 0 -14 -3 -6 -6z"/>
<path d="M643 2070 c16 -5 35 -6 43 -3 8 3 14 1 14 -4 0 -5 32 -25 71 -43 39
-19 66 -36 60 -38 -5 -2 -23 4 -39 12 -24 12 -29 13 -29 1 0 -8 5 -12 11 -9 6
3 2 -2 -9 -11 -19 -16 -17 -16 42 -13 33 2 59 0 56 -4 -6 -10 19 -10 34 0 20
13 -204 122 -247 121 l-35 -1 28 -8z"/>
<path d="M611 2028 c-16 -26 -8 -34 17 -16 15 10 17 16 7 24 -9 9 -15 7 -24
-8z"/>
<path d="M655 2034 c10 -10 13 -19 6 -23 -5 -4 11 -15 35 -25 25 -10 48 -16
51 -13 10 10 -5 35 -28 47 -17 10 -20 9 -13 -1 4 -8 -5 -4 -20 9 -33 26 -55
30 -31 6z"/>
<path d="M1686 2039 c4 -8 9 -21 11 -29 1 -8 7 -16 13 -18 5 -2 7 -9 3 -15 -3
-7 -3 -9 2 -5 11 11 36 -12 28 -25 -4 -6 -1 -7 6 -3 9 6 9 12 -3 25 -9 10 -13
21 -9 26 5 4 2 5 -5 1 -7 -5 -15 2 -21 17 -6 14 -15 28 -22 33 -8 5 -9 3 -3
-7z"/>
<path d="M1761 2047 c2 -1 15 -11 29 -22 l25 -20 -19 23 c-11 12 -24 22 -29
22 -6 0 -8 -1 -6 -3z"/>
<path d="M1349 2027 c4 -4 17 -9 29 -10 11 0 19 -4 16 -8 -2 -4 3 -12 11 -19
10 -9 15 -9 15 -1 0 6 -4 11 -9 11 -5 0 -7 8 -5 18 4 14 -2 17 -30 17 -19 0
-31 -4 -27 -8z"/>
<path d="M1133 2013 c15 -4 16 -7 5 -21 -12 -15 -11 -16 5 -3 24 19 21 31 -5
30 -18 -1 -19 -2 -5 -6z"/>
<path d="M1070 1999 c0 -5 5 -7 10 -4 6 3 10 8 10 11 0 2 -4 4 -10 4 -5 0 -10
-5 -10 -11z"/>
<path d="M1320 1990 c-9 -6 -10 -10 -3 -10 6 0 15 5 18 10 8 12 4 12 -15 0z"/>
<path d="M1762 1980 c7 -14 11 -29 10 -33 -1 -5 2 -6 7 -2 6 3 15 -4 21 -15 9
-17 14 -19 26 -9 18 15 32 3 16 -13 -15 -15 -15 -28 0 -28 6 0 8 3 5 7 -4 3 0
15 10 25 11 13 12 18 3 18 -10 0 -9 4 1 17 12 14 10 14 -14 -2 l-28 -18 -35
39 c-25 28 -31 32 -22 14z"/>
<path d="M1171 1973 c0 -10 3 -13 5 -6 3 7 13 9 22 6 15 -4 15 -3 2 6 -22 15
-30 14 -29 -6z"/>
<path d="M645 1970 c-8 -13 5 -13 25 0 13 8 13 10 -2 10 -9 0 -20 -4 -23 -10z"/>
<path d="M1140 1970 c-9 -6 -10 -10 -3 -10 6 0 15 5 18 10 8 12 4 12 -15 0z"/>
<path d="M690 1960 c-9 -6 -10 -10 -3 -10 6 0 15 5 18 10 8 12 4 12 -15 0z"/>
<path d="M1075 1950 c3 -5 8 -10 11 -10 2 0 4 5 4 10 0 6 -5 10 -11 10 -5 0
-7 -4 -4 -10z"/>
<path d="M1190 1950 c0 -5 5 -10 10 -10 6 0 10 5 10 10 0 6 -4 10 -10 10 -5 0
-10 -4 -10 -10z"/>
<path d="M649 1948 c-1 -2 -2 -16 -3 -31 -2 -15 -11 -33 -21 -41 -14 -10 -15
-17 -7 -33 6 -11 8 -23 5 -27 -3 -3 -1 -6 5 -6 7 0 12 -11 12 -24 0 -13 5 -26
10 -28 6 -2 12 -13 13 -25 0 -12 4 -20 8 -17 4 2 10 -2 13 -8 3 -7 3 -3 0 10
-3 12 -1 22 5 22 6 0 11 5 11 11 0 8 -4 8 -14 0 -11 -9 -17 -4 -30 29 -9 22
-16 47 -16 55 0 8 -6 15 -12 15 -7 1 5 16 27 35 35 30 37 34 15 29 -20 -5 -22
-3 -10 5 13 10 13 11 0 11 -13 0 -13 1 0 10 10 6 11 10 3 10 -7 0 -13 -1 -14
-2z"/>
<path d="M740 1933 c-13 -15 -12 -16 4 -10 10 4 24 7 32 7 8 0 14 5 14 10 0
16 -34 11 -50 -7z"/>
<path d="M895 1939 c-5 -5 -21 -18 -35 -30 -17 -14 -19 -17 -5 -10 31 15 61
39 55 44 -3 3 -9 1 -15 -4z"/>
<path d="M1143 1929 c-2 -23 3 -25 10 -4 4 8 3 16 -1 19 -4 3 -9 -4 -9 -15z"/>
<path d="M681 1937 c2 -1 13 -9 24 -17 19 -14 19 -14 6 3 -7 9 -18 17 -24 17
-6 0 -8 -1 -6 -3z"/>
<path d="M827 1922 c3 -7 9 -10 12 -5 3 4 10 11 15 15 4 4 -1 6 -12 5 -12 -1
-18 -6 -15 -15z"/>
<path d="M1051 1924 c0 -11 3 -14 6 -6 3 7 2 16 -1 19 -3 4 -6 -2 -5 -13z"/>
<path d="M1792 1888 c19 -38 27 -46 43 -41 11 3 17 2 13 -2 -9 -9 9 -35 24
-35 5 0 0 14 -12 30 -12 17 -26 28 -31 25 -5 -4 -9 -3 -9 2 -1 4 -12 22 -26
38 l-25 30 23 -47z"/>
<path d="M1766 1860 c16 -30 30 -57 32 -59 1 -3 10 3 20 13 16 16 16 17 -2 10
-14 -5 -17 -4 -12 4 4 7 1 15 -8 18 -9 3 -16 10 -16 15 0 6 -9 20 -21 32 -17
18 -16 12 7 -33z"/>
<path d="M587 1885 c3 -8 9 -12 14 -9 12 7 11 11 -5 17 -10 4 -13 1 -9 -8z"/>
<path d="M686 1884 c-4 -9 -4 -19 -1 -22 6 -6 35 18 35 29 0 16 -28 10 -34 -7z"/>
<path d="M1860 1892 c0 -4 9 -13 21 -20 19 -12 19 -11 9 8 -10 19 -30 28 -30
12z"/>
<path d="M799 1873 c-37 -45 -40 -55 -6 -24 20 19 37 36 37 38 0 9 -19 1 -31
-14z"/>
<path d="M741 1859 c-7 -12 -10 -23 -8 -26 3 -3 11 5 17 17 15 28 8 35 -9 9z"/>
<path d="M835 1871 c-3 -5 -1 -12 5 -16 5 -3 10 1 10 9 0 18 -6 21 -15 7z"/>
<path d="M662 1815 c0 -16 2 -22 5 -12 2 9 2 23 0 30 -3 6 -5 -1 -5 -18z"/>
<path d="M1098 1823 c7 -3 16 -2 19 1 4 3 -2 6 -13 5 -11 0 -14 -3 -6 -6z"/>
<path d="M1753 1796 c-2 -24 4 -39 22 -56 26 -25 29 -22 28 27 0 6 13 14 30
17 22 4 28 9 20 17 -7 7 -20 5 -41 -9 -24 -14 -29 -21 -20 -30 8 -8 8 -12 2
-12 -6 0 -16 12 -22 26 -7 14 -8 23 -2 19 14 -9 12 11 -2 23 -10 8 -14 2 -15
-22z"/>
<path d="M681 1793 c1 -16 3 -21 6 -12 2 9 14 21 26 27 21 10 21 11 -5 11 -24
1 -28 -3 -27 -26z"/>
<path d="M1890 1789 c0 -5 -4 -8 -9 -4 -6 3 -15 -3 -20 -14 -8 -15 -7 -20 6
-25 9 -4 18 -5 20 -2 6 6 14 56 8 56 -3 0 -5 -5 -5 -11z m0 -23 c0 -3 -4 -8
-10 -11 -5 -3 -10 -1 -10 4 0 6 5 11 10 11 6 0 10 -2 10 -4z"/>
<path d="M1710 1750 c0 -6 4 -9 9 -5 5 3 12 -2 14 -10 4 -12 5 -12 3 1 -1 19
-26 32 -26 14z"/>
<path d="M761 1734 c0 -11 3 -14 6 -6 3 7 2 16 -1 19 -3 4 -6 -2 -5 -13z"/>
<path d="M1228 1733 c7 -3 16 -2 19 1 4 3 -2 6 -13 5 -11 0 -14 -3 -6 -6z"/>
<path d="M1753 1697 c0 -12 1 -16 4 -9 3 6 9 10 13 7 5 -3 12 0 16 7 4 7 4 10
-1 6 -4 -4 -13 -4 -19 2 -8 6 -12 2 -13 -13z"/>
<path d="M666 1682 c-3 -6 -1 -12 5 -14 6 -2 12 -15 13 -28 1 -23 26 -43 26
-20 0 6 5 8 12 4 7 -4 8 -3 4 5 -6 9 -11 9 -22 0 -17 -14 -18 -5 -3 23 7 13 7
18 1 14 -6 -4 -15 1 -20 10 -6 10 -12 13 -16 6z"/>
<path d="M1790 1669 c0 -11 5 -17 10 -14 6 4 10 -5 10 -19 0 -16 6 -26 14 -26
8 0 17 -6 19 -12 4 -9 6 -8 6 2 1 15 -45 90 -54 90 -3 0 -5 -9 -5 -21z"/>
<path d="M1916 1677 c3 -10 9 -15 12 -12 3 3 0 11 -7 18 -10 9 -11 8 -5 -6z"/>
<path d="M1716 1621 c-4 -6 -2 -11 4 -11 7 0 9 -7 5 -17 -5 -14 -3 -15 5 -6 8
7 9 17 2 28 -6 12 -11 14 -16 6z"/>
<path d="M1967 1567 c-47 -82 -64 -153 -41 -178 9 -10 22 -15 29 -12 10 3 13
-2 9 -21 -2 -14 0 -26 6 -26 10 0 12 5 13 38 1 9 5 20 11 23 5 4 -1 12 -13 18
-15 9 -21 9 -21 1 0 -26 -25 -1 -27 26 -1 31 25 104 38 104 4 0 11 -15 15 -32
4 -19 9 -26 11 -18 3 8 7 22 10 30 8 21 10 101 3 105 -4 2 -23 -24 -43 -58z
m43 -27 c0 -5 -2 -10 -4 -10 -3 0 -8 5 -11 10 -3 6 -1 10 4 10 6 0 11 -4 11
-10z"/>
<path d="M1865 1587 c4 -22 3 -27 -7 -21 -7 4 -3 -4 10 -18 23 -26 29 -53 12
-63 -6 -4 -13 7 -16 25 -4 17 -10 32 -14 35 -11 7 2 -48 17 -71 10 -17 12 -59
9 -193 -2 -95 -7 -175 -10 -178 -3 -3 -1 -14 5 -24 6 -12 6 -19 0 -19 -10 0
-9 -25 1 -35 8 -8 -3 -55 -13 -55 -5 0 -5 -10 -1 -22 14 -43 -2 -142 -22 -131
-6 3 -6 0 2 -8 6 -7 12 -22 11 -33 -1 -18 -2 -17 -9 4 -8 25 -8 25 -10 -5 -2
-24 -4 -26 -7 -7 -2 12 -8 22 -13 22 -11 0 0 -43 14 -52 8 -5 7 -8 -1 -8 -7 0
-17 8 -22 18 -14 23 -14 6 0 -20 6 -11 8 -22 5 -25 -3 -3 -13 9 -21 28 -15 31
-15 31 -10 6 3 -16 2 -26 -2 -24 -4 3 -9 -6 -10 -20 0 -15 2 -22 5 -17 8 10
32 17 32 8 0 -3 -7 -12 -15 -20 -8 -9 -15 -12 -15 -8 0 3 -7 1 -16 -7 -11 -9
-14 -22 -10 -41 3 -16 2 -27 -3 -24 -5 3 -12 -1 -15 -10 -8 -21 -3 -26 18 -18
14 5 16 14 11 40 -4 24 -2 34 6 34 7 0 10 -3 6 -6 -3 -3 -2 -16 3 -29 7 -17 4
-29 -9 -44 -15 -18 -20 -19 -37 -7 -19 13 -20 12 -20 -29 -1 -42 6 -49 34 -32
8 6 12 2 12 -10 0 -15 2 -15 9 -3 6 8 8 17 5 21 -6 11 18 73 35 87 13 10 13
12 1 10 -18 -4 -25 35 -10 59 9 15 10 12 6 -15 -8 -60 9 -32 39 63 l30 95 8
-42 c4 -24 10 -64 13 -90 4 -27 11 -48 16 -48 5 0 7 8 4 18 -19 66 -22 177
-12 427 2 58 0 92 -7 97 -6 4 -8 11 -3 15 5 4 11 2 13 -4 7 -20 87 -16 106 5
8 9 23 48 31 85 24 102 18 115 -7 17 -18 -70 -27 -87 -49 -99 -25 -14 -29 -14
-55 5 -15 12 -30 30 -32 40 -2 10 0 16 4 12 4 -4 18 -2 32 3 17 6 30 6 39 -2
11 -9 18 -2 35 37 30 68 36 143 14 180 -9 16 -13 20 -9 9 16 -45 15 -89 -1
-143 -27 -87 -54 -94 -57 -14 -1 40 -2 42 -5 13 -3 -19 -13 -46 -24 -59 -10
-14 -19 -23 -19 -21 -1 2 0 63 0 134 1 194 1 197 -14 209 -8 6 -16 18 -20 26
-3 8 -4 2 -1 -13z m-112 -1070 c7 4 6 -1 -2 -10 -16 -21 -41 -22 -41 -3 0 16
23 28 28 14 2 -4 9 -5 15 -1z"/>
<path d="M713 1578 c-2 -16 1 -18 10 -9 7 7 8 14 1 21 -6 6 -10 2 -11 -12z"/>
<path d="M1414 1575 c-10 -8 -14 -15 -8 -15 6 0 17 7 24 15 16 19 9 19 -16 0z"/>
<path d="M980 1570 c-9 -6 -10 -10 -3 -10 6 0 15 5 18 10 8 12 4 12 -15 0z"/>
<path d="M1370 1569 c0 -5 5 -7 10 -4 6 3 10 8 10 11 0 2 -4 4 -10 4 -5 0 -10
-5 -10 -11z"/>
<path d="M1564 1565 c11 -8 25 -15 30 -15 6 0 2 7 -8 15 -11 8 -25 15 -30 15
-6 0 -2 -7 8 -15z"/>
<path d="M770 1555 c-7 -9 -11 -18 -8 -20 3 -3 11 1 18 10 7 9 11 18 8 20 -3
3 -11 -1 -18 -10z"/>
<path d="M1451 1551 c-11 -11 -22 -17 -24 -15 -3 3 -8 1 -12 -5 -5 -10 15 -16
38 -12 4 1 16 -3 27 -9 13 -7 21 -7 25 1 4 6 27 9 53 7 30 -2 46 1 48 10 1 7
0 8 -3 2 -2 -5 -11 -10 -19 -10 -9 0 -12 5 -8 12 4 6 3 9 -2 6 -5 -3 -18 -2
-29 2 -11 4 -33 3 -49 -1 -25 -7 -28 -6 -23 11 6 25 2 25 -22 1z"/>
<path d="M1377 1510 c-8 -22 -13 -40 -11 -40 7 0 36 71 31 76 -2 2 -11 -14
-20 -36z"/>
<path d="M1731 1533 c10 -11 10 -14 2 -9 -8 4 -13 1 -13 -8 0 -9 9 -16 20 -16
12 0 20 -7 21 -17 0 -10 3 -13 5 -6 7 15 -23 73 -37 73 -7 0 -6 -6 2 -17z"/>
<path d="M671 1524 c0 -11 3 -14 6 -6 3 7 2 16 -1 19 -3 4 -6 -2 -5 -13z"/>
<path d="M1298 1519 c-10 -7 -9 -12 4 -25 16 -16 17 -16 11 6 -4 15 -2 21 5
16 6 -3 13 -3 16 2 7 11 -19 11 -36 1z"/>
<path d="M1663 1520 c-31 -12 -29 -19 4 -17 14 1 28 8 31 15 4 14 -4 14 -35 2z"/>
<path d="M1046 1508 c5 -7 2 -9 -7 -6 -8 3 -23 0 -33 -8 -18 -13 -18 -14 8
-24 34 -12 36 -12 36 0 0 6 -7 10 -15 10 -8 0 -15 5 -15 10 0 7 6 7 19 0 11
-5 31 -10 46 -10 15 0 24 -4 20 -10 -3 -5 -2 -10 3 -10 6 0 12 6 15 13 3 9
-11 19 -39 30 -27 10 -42 12 -38 5z"/>
<path d="M2021 1510 c0 -8 4 -22 9 -30 12 -18 12 -2 0 25 -6 13 -9 15 -9 5z"/>
<path d="M766 1502 c-2 -4 -1 -14 3 -20 6 -10 11 -9 21 3 11 13 10 14 -5 9
-13 -5 -16 -4 -11 4 4 7 5 12 2 12 -3 0 -7 -4 -10 -8z"/>
<path d="M970 1500 c-9 -6 -10 -10 -3 -10 6 0 15 5 18 10 8 12 4 12 -15 0z"/>
<path d="M1707 1471 c-3 -13 -1 -18 9 -14 7 2 10 11 7 19 -7 19 -10 18 -16 -5z"/>
<path d="M835 1452 c-17 -15 -26 -24 -21 -19 21 15 28 6 12 -18 -19 -29 -20
-35 -5 -35 5 0 8 4 4 9 -3 5 4 13 16 16 15 5 18 9 9 15 -10 6 -9 9 1 16 7 4
14 3 17 -4 2 -7 8 -9 14 -6 6 4 5 10 -3 16 -10 6 -6 7 11 2 14 -4 39 -6 55 -4
17 1 40 3 53 2 12 0 22 4 22 8 0 11 -60 21 -74 13 -20 -13 -87 -9 -81 5 6 16
5 16 -30 -16z"/>
<path d="M1325 1470 c-3 -5 -1 -10 4 -10 6 0 11 5 11 10 0 6 -2 10 -4 10 -3 0
-8 -4 -11 -10z"/>
<path d="M1140 1460 c0 -5 -8 -10 -17 -11 -14 0 -12 -3 5 -10 14 -5 20 -13 16
-20 -4 -7 -3 -9 3 -6 7 4 13 -7 16 -26 4 -17 9 -48 13 -67 7 -31 8 -32 13 -12
3 13 4 43 3 66 -3 34 -9 46 -28 55 -15 7 -22 16 -18 26 3 8 3 15 0 15 -3 0 -6
-4 -6 -10z"/>
<path d="M1470 1463 c-8 -3 -25 -15 -38 -26 -14 -13 -37 -21 -60 -22 -28 0
-38 -5 -40 -19 -3 -13 0 -16 9 -11 9 6 10 3 5 -11 -4 -13 2 -9 18 10 20 23 27
26 31 13 5 -12 12 -13 38 -3 18 6 35 16 40 23 9 15 40 5 31 -9 -4 -7 9 -8 37
-3 24 4 45 11 47 16 2 4 11 3 21 -3 20 -12 71 -3 71 13 0 28 -155 52 -210 32z
m176 -22 c16 -9 11 -11 -28 -9 -27 2 -48 6 -48 9 0 12 -81 1 -98 -14 -9 -8
-30 -17 -47 -21 -30 -7 -30 -7 -7 9 55 40 77 46 143 42 36 -2 74 -9 85 -16z"/>
<path d="M1194 1445 c1 -8 7 -20 13 -26 7 -7 9 -3 6 15 -6 27 -23 37 -19 11z"/>
<path d="M1735 1440 c-10 -11 -27 -20 -37 -20 -11 0 -16 -4 -13 -10 3 -5 0 -7
-8 -5 -7 3 -21 -3 -31 -14 -10 -11 -23 -18 -27 -15 -5 3 -9 0 -9 -6 0 -6 -4
-9 -9 -6 -5 4 -20 2 -33 -3 -20 -8 -18 -9 14 -7 20 1 46 10 59 21 15 14 23 16
26 8 3 -9 10 -10 21 -4 9 4 33 11 53 15 44 8 68 30 44 40 -9 3 -14 2 -11 -3 3
-5 -8 -14 -26 -20 -50 -18 -55 -13 -15 14 20 14 37 28 37 30 0 11 -18 3 -35
-15z"/>
<path d="M2041 1412 c1 -29 6 -52 10 -52 8 0 1 90 -8 99 -2 3 -3 -19 -2 -47z"/>
<path d="M756 1438 c5 -7 7 -31 6 -53 -1 -31 0 -36 8 -20 6 14 9 16 9 5 1 -9
10 -16 22 -17 19 -2 18 0 -4 18 -24 18 -29 40 -14 55 4 4 7 12 7 18 0 6 -5 4
-10 -4 -6 -10 -10 -11 -10 -2 0 6 -5 12 -11 12 -5 0 -7 -5 -3 -12z"/>
<path d="M1023 1390 c51 -9 74 -20 42 -20 -30 0 -9 -12 29 -17 28 -4 35 -1 31
9 -8 20 -64 38 -111 37 l-39 -1 48 -8z"/>
<path d="M893 1365 c-24 -15 -43 -31 -43 -36 0 -6 5 -7 10 -4 6 3 10 2 10 -3
0 -18 -31 -35 -68 -38 -20 -1 -41 -2 -45 -3 -4 -1 -2 -7 5 -15 8 -9 17 -11 23
-5 5 5 18 9 30 9 25 1 97 44 88 54 -4 4 0 4 9 1 13 -5 16 -2 15 13 -1 17 -4
19 -22 10 -18 -9 -18 -9 -5 5 8 8 26 18 40 22 22 7 23 6 12 -8 -22 -26 -6 -35
42 -24 58 13 71 38 18 36 -20 -1 -46 2 -57 5 -13 4 -35 -3 -62 -19z"/>
<path d="M1378 1359 c-9 -6 -5 -9 13 -9 15 0 32 -7 39 -15 7 -8 26 -19 44 -24
17 -5 40 -12 50 -17 14 -5 17 -4 11 6 -5 8 -3 11 6 8 8 -3 34 1 59 9 25 8 59
18 75 23 24 6 26 8 8 9 -13 1 -23 6 -23 12 0 6 -11 2 -25 -9 -25 -20 -95 -28
-95 -11 0 5 -11 4 -25 -1 -18 -7 -25 -6 -25 3 0 7 -8 13 -17 14 -10 1 -32 4
-50 6 -17 2 -37 0 -45 -4z"/>
<path d="M1335 1339 c-4 -6 -5 -12 -2 -15 2 -3 7 2 10 11 7 17 1 20 -8 4z"/>
<path d="M1720 1340 c0 -5 5 -10 11 -10 5 0 7 5 4 10 -3 6 -8 10 -11 10 -2 0
-4 -4 -4 -10z"/>
<path d="M777 1333 c-11 -10 13 -33 34 -33 21 0 25 15 7 26 -7 4 -8 3 -4 -4 4
-7 1 -12 -8 -12 -20 0 -30 17 -14 23 7 3 8 6 2 6 -6 1 -14 -2 -17 -6z"/>
<path d="M1085 1311 c-89 -41 -146 -54 -176 -43 -15 6 -31 7 -40 1 -10 -6 -6
-9 16 -9 29 0 28 -2 -21 -30 -28 -16 -54 -36 -58 -45 -3 -9 11 -2 34 16 32 26
49 32 93 34 54 1 187 56 187 76 0 6 8 5 20 -1 16 -8 20 -8 20 4 0 25 -13 25
-75 -3z m-128 -67 c-3 -3 -12 -4 -19 -1 -8 3 -5 6 6 6 11 1 17 -2 13 -5z"/>
<path d="M1685 1320 c27 -12 43 -12 25 0 -8 5 -22 9 -30 9 -10 0 -8 -3 5 -9z"/>
<path d="M1834 1285 c3 -21 16 -31 16 -12 0 9 -4 18 -9 21 -5 4 -8 -1 -7 -9z"/>
<path d="M1433 1270 c15 -12 31 -20 34 -16 4 3 1 6 -6 6 -7 0 -9 5 -6 10 3 6
2 10 -4 10 -5 0 -18 3 -28 7 -10 3 -7 -3 10 -17z"/>
<path d="M1184 1264 c9 -8 16 -20 16 -26 0 -6 3 -9 6 -6 8 9 -14 48 -27 48 -6
0 -3 -7 5 -16z"/>
<path d="M802 1239 c-23 -9 -22 -29 1 -29 7 0 6 4 -3 10 -13 8 -13 10 2 10 9
0 20 5 23 10 7 12 7 12 -23 -1z"/>
<path d="M1840 1240 c-8 -5 -12 -12 -8 -15 3 -3 2 -21 -2 -39 -5 -23 -4 -33 5
-33 7 0 11 14 9 36 -1 20 3 42 8 49 12 14 9 15 -12 2z"/>
<path d="M693 1207 c-1 -30 -1 -31 8 -8 5 14 6 28 2 32 -4 4 -9 -6 -10 -24z"/>
<path d="M720 1224 c0 -7 6 -16 13 -20 6 -4 9 -4 5 1 -4 4 -3 13 2 20 7 8 5
12 -5 12 -8 0 -15 -6 -15 -13z"/>
<path d="M1530 1221 c0 -6 4 -13 10 -16 6 -3 7 1 4 9 -7 18 -14 21 -14 7z"/>
<path d="M720 1181 c0 -16 12 -41 20 -41 4 0 5 11 2 25 -4 23 -22 36 -22 16z"/>
<path d="M1045 1180 c-3 -6 1 -7 9 -4 18 7 21 14 7 14 -6 0 -13 -4 -16 -10z"/>
<path d="M1408 1173 c7 -3 16 -2 19 1 4 3 -2 6 -13 5 -11 0 -14 -3 -6 -6z"/>
<path d="M1143 1147 c9 -8 17 -19 17 -26 0 -6 4 -11 10 -11 17 0 -7 45 -26 48
-18 3 -18 2 -1 -11z"/>
<path d="M1386 1143 c-6 -14 -5 -15 5 -6 7 7 10 15 7 18 -3 3 -9 -2 -12 -12z"/>
<path d="M1448 1127 c10 -19 20 -30 23 -25 9 13 45 -10 60 -39 7 -12 15 -21
18 -19 3 2 33 -10 66 -28 39 -21 60 -38 59 -49 -1 -9 1 -16 5 -15 17 2 19 -4
6 -29 -8 -15 -12 -30 -9 -35 3 -5 0 -16 -8 -25 -11 -14 -11 -15 2 -11 17 5 42
85 35 109 -8 25 -38 54 -59 57 -32 6 -66 33 -72 58 -3 13 -13 24 -21 24 -8 0
-11 5 -8 10 4 6 3 9 -2 8 -4 -1 -19 5 -33 14 -14 9 -37 20 -52 23 l-26 7 16
-35z"/>
<path d="M1221 1134 c0 -11 3 -14 6 -6 3 7 2 16 -1 19 -3 4 -6 -2 -5 -13z"/>
<path d="M1119 1130 c-1 -5 -3 -14 -4 -20 -1 -5 -3 -15 -4 -21 0 -5 -6 -7 -13
-3 -7 4 -8 3 -4 -4 4 -7 -3 -16 -17 -21 -25 -10 -77 -69 -77 -88 0 -6 -11 -18
-24 -26 -21 -15 -56 -73 -56 -95 0 -16 48 11 53 30 3 9 1 18 -4 20 -5 2 9 23
32 48 22 25 48 55 56 68 21 30 40 28 58 -8 13 -26 21 -30 58 -30 23 0 51 -7
61 -15 32 -24 89 -19 116 10 12 13 39 30 59 36 37 12 51 25 51 46 0 15 -60
-20 -102 -59 -36 -34 -73 -36 -128 -8 -27 14 -49 18 -67 14 -16 -4 -25 -3 -20
1 4 5 -2 19 -14 31 -19 21 -20 26 -9 54 7 16 17 30 22 30 5 0 6 5 3 10 -3 6
-10 10 -16 10 -5 0 -10 -4 -10 -10z m-163 -257 c-10 -10 -19 5 -10 18 6 11 8
11 12 0 2 -7 1 -15 -2 -18z"/>
<path d="M1203 1120 c2 -8 12 -16 23 -17 13 -2 15 -1 4 4 -8 3 -19 11 -23 17
-6 7 -7 6 -4 -4z"/>
<path d="M1840 1119 c0 -5 5 -7 10 -4 6 3 10 8 10 11 0 2 -4 4 -10 4 -5 0 -10
-5 -10 -11z"/>
<path d="M750 1091 c0 -11 4 -22 9 -25 4 -3 6 6 3 19 -5 30 -12 33 -12 6z"/>
<path d="M1040 1106 c0 -2 7 -7 16 -10 8 -3 12 -2 9 4 -6 10 -25 14 -25 6z"/>
<path d="M998 1063 c7 -3 16 -2 19 1 4 3 -2 6 -13 5 -11 0 -14 -3 -6 -6z"/>
<path d="M1760 1060 c14 -9 6 -15 -15 -10 -5 1 -2 -7 8 -18 9 -10 17 -28 17
-40 0 -12 4 -22 9 -22 5 0 9 14 9 30 -1 19 -6 30 -16 30 -11 0 -12 3 -3 13 11
14 5 27 -13 27 -6 0 -4 -5 4 -10z"/>
<path d="M1360 1040 c-13 -11 -19 -20 -13 -20 5 0 18 9 28 20 10 11 16 20 13
20 -3 0 -15 -9 -28 -20z"/>
<path d="M1196 1035 c6 -16 44 -41 44 -30 0 4 -5 15 -10 26 -13 23 -42 26 -34
4z"/>
<path d="M1560 1020 c0 -12 77 -50 84 -42 6 5 -62 51 -76 52 -5 0 -8 -4 -8
-10z"/>
<path d="M886 982 c-3 -5 1 -9 9 -9 8 0 12 4 9 9 -3 4 -7 8 -9 8 -2 0 -6 -4
-9 -8z"/>
<path d="M1405 980 c3 -5 8 -10 11 -10 2 0 4 5 4 10 0 6 -5 10 -11 10 -5 0 -7
-4 -4 -10z"/>
<path d="M845 970 c-4 -6 -4 -38 0 -72 8 -66 78 -218 100 -218 8 0 -7 38 -36
96 -27 52 -47 99 -44 104 3 5 1 11 -5 15 -16 10 -12 25 8 25 9 0 13 4 7 8 -5
4 -12 16 -13 27 -5 26 -8 29 -17 15z"/>
<path d="M1366 948 c-18 -34 -21 -51 -6 -28 8 13 10 13 10 -2 0 -9 3 -19 8
-21 4 -3 7 15 7 39 0 24 -1 44 -2 44 -1 0 -9 -14 -17 -32z"/>
<path d="M1470 973 c0 -7 5 -15 11 -18 6 -4 8 -13 5 -21 -3 -8 -1 -14 5 -14 7
0 8 -15 4 -42 -5 -39 -5 -41 9 -25 13 16 13 25 1 64 -14 45 -35 79 -35 56z"/>
<path d="M1510 972 c0 -13 39 -42 58 -42 7 0 10 5 7 11 -4 6 -10 8 -13 5 -3
-4 -16 4 -29 16 -13 12 -23 16 -23 10z"/>
<path d="M1587 969 c7 -7 15 -10 18 -7 3 3 -2 9 -12 12 -14 6 -15 5 -6 -5z"/>
<path d="M1132 949 c-1 -11 -2 -39 -3 -64 -2 -48 -16 -58 -56 -44 -17 6 -21 5
-16 -7 9 -25 -21 -6 -33 21 -10 20 -8 29 12 57 27 36 28 38 14 38 -6 0 -14 -8
-17 -17 -4 -10 -12 -23 -17 -30 -6 -7 -18 -20 -26 -29 -8 -10 -15 -32 -15 -51
-2 -46 -15 -55 -15 -10 0 40 -15 50 -25 17 -6 -19 29 -80 47 -80 9 0 -1 -61
-13 -75 -13 -14 -11 -37 4 -32 6 2 11 10 9 16 -1 6 5 25 13 41 19 37 17 80 -5
73 -13 -4 -13 -3 -1 5 12 9 13 13 1 27 -11 14 -10 19 9 38 l22 22 -7 -40 c-6
-39 -6 -40 14 -22 12 11 22 14 26 8 4 -6 13 -8 20 -5 7 3 19 -2 26 -11 18 -21
29 -19 23 5 -6 22 7 26 25 8 9 -9 12 -9 12 0 0 7 4 12 9 12 17 0 40 -30 35
-45 -7 -18 -31 -20 -36 -3 -3 8 -9 8 -24 0 -10 -6 -17 -12 -14 -12 3 0 41 -6
85 -13 44 -7 103 -10 130 -6 51 6 145 43 156 61 4 6 18 11 31 11 17 2 24 7 21
17 -2 9 5 24 16 34 12 11 21 16 21 11 0 -4 7 -2 15 5 13 10 15 9 15 -9 0 -12
5 -19 10 -16 6 3 10 17 10 30 0 20 -4 23 -27 20 -16 -2 -33 -4 -39 -4 -6 -1
-19 -19 -30 -41 -14 -29 -24 -38 -36 -34 -12 3 -18 0 -18 -10 0 -20 -24 -21
-39 -2 -8 10 -6 19 9 39 24 30 24 34 5 34 -8 0 -12 -4 -10 -8 3 -3 -4 -9 -15
-12 -11 -3 -23 -1 -26 5 -4 7 -9 7 -13 0 -10 -17 -44 -18 -46 -2 -4 22 -24 70
-29 70 -11 0 0 -70 12 -75 23 -9 12 -21 -22 -23 -33 -2 -62 18 -37 26 9 3 9 8
-1 20 -10 12 -10 14 0 8 7 -4 12 -2 12 8 0 21 -17 29 -24 10 -3 -9 -6 -31 -6
-50 0 -31 -2 -34 -31 -34 -17 0 -28 4 -24 10 3 6 1 10 -4 10 -6 0 -11 -6 -11
-12 0 -8 -8 -4 -17 7 -13 16 -15 17 -10 3 5 -13 1 -18 -13 -18 -14 0 -18 5
-13 18 14 36 30 61 36 56 3 -3 11 5 18 18 11 21 11 22 -4 9 -10 -7 -17 -10
-17 -5 -1 5 -8 -4 -16 -19 -19 -35 -26 -31 -15 9 5 16 13 28 20 27 19 -5 12
14 -7 19 -12 3 -18 -1 -20 -13z m-122 -83 c0 -2 -8 -10 -17 -17 -16 -13 -17
-12 -4 4 13 16 21 21 21 13z m420 -28 c0 -7 3 -24 7 -36 5 -21 3 -23 -18 -20
-13 2 -28 -2 -34 -8 -13 -15 -125 -29 -125 -16 0 6 -8 8 -19 5 -14 -3 -20 2
-25 22 -9 36 -1 42 24 20 18 -16 20 -16 20 -2 0 23 46 22 55 0 6 -16 8 -15 16
5 9 23 49 31 49 10 0 -7 7 -2 16 10 17 24 34 29 34 10z"/>
<path d="M1411 944 c0 -11 3 -14 6 -6 3 7 2 16 -1 19 -3 4 -6 -2 -5 -13z"/>
<path d="M1771 952 c-1 -7 -10 -31 -20 -53 -11 -21 -15 -37 -10 -33 15 9 10
-13 -6 -26 -8 -7 -15 -17 -15 -24 0 -6 -10 -34 -22 -63 -17 -43 -19 -56 -9
-66 10 -9 11 -8 6 6 -4 10 -2 17 4 17 6 0 11 6 11 14 0 8 11 37 25 64 27 53
50 144 42 165 -4 9 -6 9 -6 -1z"/>
<path d="M1450 945 c0 -5 5 -17 10 -25 5 -8 10 -10 10 -5 0 6 -5 17 -10 25 -5
8 -10 11 -10 5z"/>
<path d="M1616 935 c3 -8 9 -14 12 -13 20 2 32 -3 27 -12 -3 -5 -1 -10 5 -10
7 0 9 7 6 16 -3 9 -6 18 -6 20 0 3 -4 3 -9 -1 -5 -3 -12 -1 -16 5 -10 16 -25
12 -19 -5z"/>
<path d="M1224 894 c-6 -19 -10 -34 -9 -34 10 0 32 49 26 58 -3 6 -11 -4 -17
-24z"/>
<path d="M1823 906 c7 -14 13 -23 15 -21 7 6 -9 45 -18 45 -4 0 -3 -11 3 -24z"/>
<path d="M1301 884 c0 -11 3 -14 6 -6 3 7 2 16 -1 19 -3 4 -6 -2 -5 -13z"/>
<path d="M1527 885 c3 -8 9 -12 14 -9 12 7 11 11 -5 17 -10 4 -13 1 -9 -8z"/>
<path d="M1063 880 c-13 -5 -23 -12 -23 -15 0 -9 16 -5 36 10 22 16 19 18 -13
5z"/>
<path d="M1175 880 c-3 -5 -1 -10 4 -10 6 0 11 5 11 10 0 6 -2 10 -4 10 -3 0
-8 -4 -11 -10z"/>
<path d="M1650 879 c0 -5 5 -7 10 -4 6 3 10 8 10 11 0 2 -4 4 -10 4 -5 0 -10
-5 -10 -11z"/>
<path d="M1089 863 c-13 -16 -12 -17 4 -4 9 7 17 15 17 17 0 8 -8 3 -21 -13z"/>
<path d="M1804 851 c0 -11 4 -17 8 -15 4 3 8 12 8 20 0 8 -4 14 -8 14 -4 0 -8
-9 -8 -19z"/>
<path d="M1640 851 c0 -13 28 -33 33 -23 3 4 -3 13 -14 20 -10 7 -19 8 -19 3z"/>
<path d="M1620 833 c0 -5 7 -18 15 -29 12 -16 14 -16 15 -3 0 9 -7 22 -15 29
-8 7 -15 8 -15 3z"/>
<path d="M1600 770 c-8 -5 -12 -12 -9 -15 4 -3 12 1 19 10 14 17 11 19 -10 5z"/>
<path d="M1648 773 c-8 -17 -2 -86 7 -90 8 -2 12 58 5 77 -2 3 -2 8 -1 13 0 4
-1 7 -3 7 -3 0 -6 -3 -8 -7z"/>
<path d="M1029 733 c-13 -16 -12 -17 4 -4 9 7 17 15 17 17 0 8 -8 3 -21 -13z"/>
<path d="M1127 743 c-4 -3 -7 -11 -7 -17 0 -6 5 -5 12 2 6 6 9 14 7 17 -3 3
-9 2 -12 -2z"/>
<path d="M1037 711 c-11 -14 -10 -14 6 -2 12 9 17 10 17 2 0 -7 5 -9 10 -6 15
9 12 22 -5 22 -8 0 -21 -7 -28 -16z"/>
<path d="M1177 709 c7 -7 15 -10 18 -7 3 3 -2 9 -12 12 -14 6 -15 5 -6 -5z"/>
<path d="M1925 712 c6 -4 10 -27 10 -52 0 -25 2 -56 6 -70 3 -14 3 -34 -1 -45
-8 -19 -8 -19 -19 5 -11 24 -11 23 -5 -7 4 -24 -1 -41 -22 -72 -15 -23 -31
-41 -35 -41 -5 0 -8 -4 -6 -8 2 -9 -69 -92 -75 -88 -2 2 -11 -6 -20 -16 -10
-10 -15 -18 -12 -18 3 0 -8 -12 -25 -26 -17 -14 -36 -22 -42 -18 -8 5 -9 3 -4
-6 5 -8 -5 -24 -28 -44 -20 -18 -52 -46 -71 -63 -18 -18 -37 -30 -40 -27 -3 2
-4 1 -2 -2 5 -6 -47 -54 -58 -54 -3 0 -15 -9 -26 -20 -13 -13 -30 -18 -50 -16
-16 2 -30 -1 -30 -5 0 -16 64 -9 95 9 38 24 205 173 306 273 103 102 189 231
189 281 0 24 -5 38 -12 38 -9 0 -10 3 -2 8 6 4 14 20 18 35 8 32 -7 57 -33 57
-9 0 -12 -3 -6 -8z"/>
<path d="M1420 700 c0 -5 5 -10 11 -10 5 0 7 5 4 10 -3 6 -8 10 -11 10 -2 0
-4 -4 -4 -10z"/>
<path d="M1730 679 c0 -16 4 -28 9 -25 8 5 3 56 -5 56 -2 0 -4 -14 -4 -31z"/>
<path d="M1070 685 c-7 -9 -8 -15 -2 -15 5 0 12 7 16 15 3 8 4 15 2 15 -2 0
-9 -7 -16 -15z"/>
<path d="M1469 678 c10 -13 18 -15 31 -8 9 5 21 6 25 2 5 -4 5 -1 1 6 -5 8
-13 9 -25 2 -12 -6 -22 -5 -31 3 -12 10 -12 9 -1 -5z"/>
<path d="M1620 683 c0 -15 39 -61 40 -47 0 6 -9 21 -20 34 -11 13 -20 18 -20
13z"/>
<path d="M1990 688 c0 -4 27 -62 61 -130 l61 -123 -4 -217 c-3 -182 -1 -218
10 -218 9 0 12 6 8 16 -3 8 -2 12 4 9 6 -3 10 -1 10 4 0 6 -4 11 -9 11 -5 0
-6 15 -2 33 4 17 6 61 5 97 0 38 4 68 10 72 8 5 7 8 -1 8 -7 0 -13 7 -13 15 0
8 5 15 11 15 8 0 8 4 2 13 -15 17 -14 77 0 77 8 0 7 3 -2 9 -8 5 -11 16 -8 24
3 8 3 18 -1 21 -3 4 -7 12 -9 19 -1 7 -9 37 -18 67 -22 80 -17 88 32 43 22
-21 50 -45 61 -53 56 -43 83 -71 77 -80 -3 -6 0 -7 9 -4 9 3 16 2 16 -4 0 -5
11 -13 25 -16 14 -4 23 -10 20 -15 -2 -5 2 -12 11 -15 8 -3 12 -11 8 -17 -4
-8 -3 -9 5 -5 6 4 9 12 6 17 -4 5 -1 9 4 9 6 0 11 -5 11 -11 0 -6 7 -8 16 -5
8 3 12 2 9 -4 -3 -6 -1 -10 5 -10 6 0 8 -6 4 -12 -5 -10 -4 -10 5 -2 10 9 26
8 64 -4 29 -9 55 -21 59 -27 5 -6 8 -4 8 5 0 11 2 12 8 3 4 -7 23 -15 41 -18
18 -3 50 -13 70 -21 20 -9 45 -18 56 -20 11 -3 27 -7 35 -9 8 -2 21 -4 28 -4
8 -1 10 -6 6 -14 -4 -6 -4 -9 0 -6 7 6 162 -43 173 -55 11 -11 23 -6 23 8 0 7
-19 20 -42 29 -112 40 -374 129 -465 157 -116 36 -151 57 -278 167 -66 56
-102 80 -135 89 -37 9 -49 18 -67 50 -13 21 -23 36 -23 32z"/>
<path d="M1357 668 c7 -8 10 -17 7 -21 -3 -3 4 -3 15 0 25 6 25 6 -9 23 -22
12 -24 11 -13 -2z"/>
<path d="M1024 651 c9 -10 18 -28 19 -39 0 -12 6 -18 14 -15 7 3 13 -2 13 -11
0 -9 5 -16 11 -16 7 0 5 10 -5 25 -9 14 -23 36 -32 50 -9 14 -21 25 -27 25 -5
0 -2 -8 7 -19z"/>
<path d="M1080 659 c-12 -8 -10 -9 8 -4 22 6 23 5 12 -14 -8 -17 -8 -21 2 -19
7 2 12 -4 10 -12 -2 -8 0 -12 4 -8 4 4 14 2 23 -4 9 -7 13 -9 9 -4 -4 5 -3 17
3 28 9 18 8 18 -10 8 -14 -7 -21 -7 -22 0 -1 5 -2 15 -3 22 -2 16 -18 20 -36
7z"/>
<path d="M1235 650 c-3 -5 -3 -10 0 -10 3 0 -3 -10 -15 -22 -11 -12 -20 -27
-20 -32 0 -6 7 -3 14 6 7 10 17 14 21 10 5 -4 5 -1 1 6 -4 7 -1 12 9 12 10 0
13 -5 9 -12 -5 -7 -3 -8 5 -3 9 5 9 11 3 17 -6 6 -8 17 -5 24 6 16 -13 19 -22
4z"/>
<path d="M1454 647 c-4 -7 -4 -9 1 -5 9 9 35 -16 35 -33 0 -7 3 -10 6 -6 9 9
-5 45 -21 51 -8 3 -17 0 -21 -7z"/>
<path d="M1609 655 c-1 -3 -3 -9 -4 -15 -1 -5 -3 -15 -4 -21 0 -5 -5 -7 -11
-4 -5 3 -10 1 -10 -5 0 -7 6 -10 14 -7 7 3 19 0 26 -6 10 -9 11 -7 5 13 -5 14
-8 31 -8 38 0 12 -6 17 -8 7z"/>
<path d="M1188 630 c-22 -17 -47 -87 -27 -74 4 2 14 -4 21 -14 20 -28 37 -35
33 -15 -2 10 -4 23 -4 28 -1 6 -6 3 -11 -5 -9 -13 -10 -13 -11 0 -1 8 -3 25
-4 38 -1 13 3 26 11 29 11 4 29 33 20 33 -2 0 -15 -9 -28 -20z"/>
<path d="M1340 639 c0 -5 -4 -8 -9 -4 -5 3 -12 2 -15 -3 -2 -4 6 -8 19 -8 15
0 21 5 18 13 -6 16 -13 17 -13 2z"/>
<path d="M1423 628 c-2 -18 0 -20 7 -8 12 18 13 30 2 30 -4 0 -9 -10 -9 -22z"/>
<path d="M982 631 c-11 -7 -11 -9 2 -14 10 -4 16 -1 16 8 0 17 -1 17 -18 6z"/>
<path d="M1290 635 c-6 -19 -8 -30 -9 -50 -1 -17 -3 -18 -11 -5 -5 8 -10 10
-10 4 0 -5 7 -19 16 -30 8 -10 13 -13 9 -6 -4 7 -2 19 5 27 6 8 10 26 7 42 -2
15 -5 24 -7 18z"/>
<path d="M1385 630 c3 -5 11 -10 16 -10 6 0 7 5 4 10 -3 6 -11 10 -16 10 -6 0
-7 -4 -4 -10z"/>
<path d="M1976 625 c-3 -8 -1 -15 3 -15 5 0 11 7 15 15 3 8 1 15 -3 15 -5 0
-11 -7 -15 -15z"/>
<path d="M1696 603 c10 -40 14 -41 14 -5 0 18 -5 32 -10 32 -6 0 -8 -11 -4
-27z"/>
<path d="M1362 596 c-16 -37 -15 -47 3 -16 8 14 14 20 15 13 0 -7 7 -10 15 -7
8 4 12 10 9 15 -3 5 -9 7 -14 4 -4 -3 -10 0 -12 6 -2 6 -9 -1 -16 -15z"/>
<path d="M1640 615 c0 -5 4 -16 9 -23 6 -11 10 -10 15 4 3 9 4 19 1 22 -3 3
-5 -1 -5 -9 0 -11 -2 -11 -10 1 -5 8 -10 11 -10 5z"/>
<path d="M1311 599 c0 -9 6 -22 14 -29 12 -10 15 -9 15 4 0 10 -4 15 -9 11 -5
-3 -12 3 -14 12 -4 15 -5 15 -6 2z"/>
<path d="M1017 583 c4 -10 2 -14 -4 -10 -5 3 -10 0 -10 -6 0 -15 34 -20 42 -6
3 5 -1 6 -9 3 -11 -4 -13 0 -9 15 3 12 1 21 -6 21 -6 0 -8 -7 -4 -17z"/>
<path d="M1575 580 c10 -11 20 -20 23 -20 3 0 -3 9 -13 20 -10 11 -20 20 -23
20 -3 0 3 -9 13 -20z"/>
<path d="M1672 579 c-7 -11 -17 -17 -21 -14 -5 2 -5 -11 -1 -30 4 -20 4 -38
-1 -41 -5 -3 -9 -2 -10 3 0 4 -2 20 -3 35 -1 16 -10 36 -20 45 -18 17 -18 17
-2 -14 22 -43 20 -48 -9 -29 -14 9 -25 12 -25 6 0 -5 5 -10 11 -10 7 0 9 -10
5 -27 -5 -23 -4 -25 4 -11 9 14 14 15 24 6 8 -7 11 -20 9 -28 -3 -8 3 -4 13
10 10 14 17 35 15 48 -1 13 5 32 15 43 9 10 15 21 13 24 -3 2 -10 -5 -17 -16z"/>
<path d="M1430 575 c0 -5 5 -17 10 -25 5 -8 10 -10 10 -5 0 6 -5 17 -10 25 -5
8 -10 11 -10 5z"/>
<path d="M1082 535 c0 -16 2 -22 5 -12 2 9 2 23 0 30 -3 6 -5 -1 -5 -18z"/>
<path d="M1100 550 c0 -5 5 -10 11 -10 5 0 7 5 4 10 -3 6 -8 10 -11 10 -2 0
-4 -4 -4 -10z"/>
<path d="M1240 529 c5 -18 4 -29 -2 -31 -6 -2 -8 -13 -3 -27 10 -33 18 -19 19
37 1 32 -2 49 -10 49 -8 0 -9 -9 -4 -28z"/>
<path d="M1307 540 c3 -11 7 -20 9 -20 2 0 4 9 4 20 0 11 -4 20 -9 20 -5 0 -7
-9 -4 -20z"/>
<path d="M1411 543 c7 -12 15 -20 18 -17 3 2 -3 12 -13 22 -17 16 -18 16 -5
-5z"/>
<path d="M1520 547 c0 -11 50 -78 69 -94 20 -18 35 -16 19 1 -7 8 -16 12 -20
9 -5 -2 -8 5 -8 17 0 13 -4 19 -11 14 -8 -4 -9 1 -4 17 4 16 3 20 -3 10 -8
-10 -13 -8 -26 10 -9 13 -16 20 -16 16z"/>
<path d="M1272 516 c7 -8 15 -12 17 -11 5 6 -10 25 -20 25 -5 0 -4 -6 3 -14z"/>
<path d="M1110 507 c0 -7 9 -13 20 -13 24 0 26 11 4 20 -22 8 -24 8 -24 -7z"/>
<path d="M1326 511 c-3 -5 1 -11 9 -14 9 -4 12 -1 8 9 -6 16 -10 17 -17 5z"/>
<path d="M1480 505 c0 -8 2 -15 4 -15 2 0 6 7 10 15 3 8 1 15 -4 15 -6 0 -10
-7 -10 -15z"/>
<path d="M1076 485 c-3 -9 -9 -14 -14 -11 -4 2 -8 -15 -8 -40 0 -46 4 -52 24
-32 15 15 16 48 2 48 -7 0 -7 7 0 21 7 11 10 23 7 25 -2 3 -7 -2 -11 -11z m-4
-67 c-7 -7 -12 -8 -12 -2 0 14 12 26 19 19 2 -3 -1 -11 -7 -17z"/>
<path d="M1185 489 c-4 -6 -5 -12 -2 -15 2 -3 7 2 10 11 7 17 1 20 -8 4z"/>
<path d="M1365 489 c-4 -5 1 -19 11 -30 9 -10 14 -19 9 -19 -4 0 -2 -7 5 -15
6 -8 9 -18 7 -23 -3 -4 -2 -14 2 -21 6 -9 10 0 13 24 3 24 0 39 -8 42 -7 2
-10 11 -7 19 4 10 0 12 -11 8 -12 -5 -15 -2 -10 10 7 18 -1 22 -11 5z"/>
<path d="M1668 474 c-7 -16 -19 -34 -26 -40 -20 -15 -24 -68 -6 -90 8 -10 14
-14 13 -9 -3 16 12 45 21 40 5 -3 12 5 16 17 11 38 25 50 41 37 11 -10 12 -8
7 6 -5 13 -4 16 4 11 8 -5 10 -2 6 8 -5 14 -10 14 -40 1 -36 -15 -48 -3 -22
23 6 6 9 15 5 18 -3 4 -12 -6 -19 -22z m1 -56 c-16 -12 -18 -16 -6 -12 9 3 17
1 17 -5 0 -6 -7 -11 -15 -11 -8 0 -15 -7 -15 -15 0 -8 -4 -15 -10 -15 -14 0
-13 13 2 28 9 9 9 12 0 12 -8 0 -6 6 4 18 9 10 22 19 31 19 11 0 8 -6 -8 -19z"/>
<path d="M1315 444 c-5 -34 -10 -44 -21 -40 -8 3 -14 1 -14 -4 0 -6 6 -10 13
-10 22 0 38 16 32 32 -4 9 -1 19 6 24 9 5 10 2 6 -9 -3 -10 -2 -17 3 -17 13 0
8 49 -6 61 -8 7 -14 -3 -19 -37z"/>
<path d="M1453 425 c0 -36 4 -60 8 -54 3 6 4 20 2 30 -3 10 -1 19 4 19 11 0 5
58 -7 65 -5 3 -8 -24 -7 -60z"/>
<path d="M1507 471 c4 -17 3 -22 -5 -17 -7 4 -12 2 -12 -3 0 -6 5 -11 10 -11
6 0 10 -14 10 -31 0 -19 -4 -28 -11 -24 -6 4 -8 14 -4 24 5 12 4 13 -6 4 -10
-10 -9 -16 1 -28 17 -20 33 -6 33 29 0 14 3 23 8 20 15 -9 9 10 -11 36 l-19
25 6 -24z"/>
<path d="M1280 464 c0 -8 5 -12 10 -9 6 4 8 11 5 16 -9 14 -15 11 -15 -7z"/>
<path d="M1431 464 c0 -11 3 -14 6 -6 3 7 2 16 -1 19 -3 4 -6 -2 -5 -13z"/>
<path d="M1112 448 c1 -14 -4 -38 -11 -52 -12 -21 -11 -27 3 -41 9 -9 14 -21
11 -26 -4 -5 -4 -9 -1 -9 3 0 10 9 16 20 8 16 8 20 -2 18 -7 -2 -12 3 -10 10
1 8 -2 11 -9 6 -7 -4 -10 -1 -7 7 3 8 11 14 18 14 7 0 15 6 18 13 2 6 -1 12
-8 12 -6 0 -8 4 -5 10 3 5 1 18 -4 27 -9 15 -10 14 -9 -9z"/>
<path d="M1160 462 c0 -7 -5 -10 -12 -6 -7 4 -8 3 -4 -4 4 -7 14 -12 22 -12
13 0 15 -9 10 -42 -5 -40 -5 -41 5 -10 13 43 19 40 17 -8 -1 -39 6 -59 18 -47
3 3 2 12 -2 19 -5 7 -7 24 -6 38 1 14 -9 38 -23 55 -14 17 -25 24 -25 17z"/>
<path d="M1220 451 c0 -6 4 -13 10 -16 6 -3 7 1 4 9 -7 18 -14 21 -14 7z"/>
<path d="M1254 435 c-4 -8 -3 -26 0 -40 4 -16 2 -25 -6 -25 -6 0 -3 -7 8 -16
10 -8 13 -13 7 -9 -7 3 -13 1 -13 -4 0 -6 7 -11 15 -11 8 0 15 7 15 15 0 8 -3
15 -7 15 -5 0 -8 20 -7 45 1 47 -3 55 -12 30z"/>
<path d="M1551 427 c0 -12 3 -16 6 -9 7 17 21 15 26 -5 4 -14 5 -14 6 3 1 14
-6 24 -19 27 -16 4 -20 0 -19 -16z"/>
<path d="M1363 411 c0 -11 5 -18 9 -15 4 3 5 11 1 19 -7 21 -12 19 -10 -4z"/>
<path d="M1811 414 c0 -11 3 -14 6 -6 3 7 2 16 -1 19 -3 4 -6 -2 -5 -13z"/>
<path d="M1342 380 c0 -14 2 -19 5 -12 2 6 2 18 0 25 -3 6 -5 1 -5 -13z"/>
<path d="M1547 380 c-17 -25 -56 -33 -69 -15 -5 6 -8 3 -8 -7 0 -20 16 -32 25
-18 9 15 22 12 29 -6 5 -13 2 -15 -14 -11 -16 4 -20 0 -19 -16 0 -12 3 -16 6
-9 2 6 14 12 25 12 14 0 18 5 14 15 -3 8 0 15 6 15 6 0 8 3 5 7 -4 3 1 11 10
18 8 6 14 18 11 25 -3 10 -9 6 -21 -10z"/>
<path d="M1152 370 c0 -14 2 -19 5 -12 2 6 2 18 0 25 -3 6 -5 1 -5 -13z"/>
<path d="M1420 376 c0 -7 -9 -16 -20 -19 -13 -3 -20 -14 -20 -31 0 -20 4 -24
18 -19 15 6 15 5 3 -10 -7 -9 -16 -15 -20 -13 -4 3 -7 -4 -7 -15 0 -13 7 -19
21 -18 12 0 15 3 6 6 -11 4 -11 7 0 13 7 5 12 24 11 45 -1 19 2 34 6 31 4 -2
9 6 10 20 1 13 0 24 -3 24 -3 0 -5 -6 -5 -14z"/>
<path d="M1362 355 c0 -16 2 -22 5 -12 2 9 2 23 0 30 -3 6 -5 -1 -5 -18z"/>
<path d="M1600 369 c0 -5 -5 -7 -10 -4 -6 4 -10 3 -9 -2 1 -4 1 -15 0 -23 -1
-12 -3 -12 -10 -2 -7 11 -9 11 -14 -1 -4 -12 0 -15 15 -12 11 3 23 7 26 10 8
7 13 45 7 45 -3 0 -5 -5 -5 -11z"/>
<path d="M1316 333 c14 -25 14 -26 0 -9 -16 20 -16 19 -16 -1 0 -12 7 -23 15
-25 10 -2 12 -8 6 -17 -11 -18 -31 -5 -31 20 0 10 -4 19 -9 19 -11 0 -24 -31
-16 -38 3 -3 5 1 5 9 0 8 10 -1 21 -18 20 -32 39 -43 39 -23 0 19 2 25 11 36
11 14 -11 74 -28 74 -10 0 -10 -7 3 -27z"/>
<path d="M1064 334 c3 -9 9 -27 12 -40 3 -13 10 -24 15 -24 11 0 11 11 -1 30
-5 9 -5 19 2 27 8 11 7 12 -7 7 -13 -5 -16 -4 -11 4 4 7 2 12 -4 12 -7 0 -9
-7 -6 -16z"/>
<path d="M1442 326 c-11 -24 -11 -31 0 -37 10 -7 10 -9 1 -9 -7 0 -13 -5 -13
-12 0 -8 5 -7 16 3 10 10 14 29 12 50 l-3 34 -13 -29z"/>
<path d="M1148 315 c2 -14 9 -25 14 -25 6 0 7 7 4 16 -3 9 -6 20 -6 25 0 5 -4
9 -9 9 -4 0 -6 -11 -3 -25z"/>
<path d="M1231 333 c-1 -7 -8 -13 -16 -13 -8 0 -15 -6 -15 -12 0 -9 -4 -8 -10
2 -5 8 -10 11 -10 5 0 -5 5 -17 10 -25 5 -8 10 -10 10 -4 0 7 7 14 15 18 8 3
14 2 13 -2 0 -4 4 -18 10 -32 l11 -25 -1 25 c0 27 -15 83 -17 63z"/>
<path d="M1472 310 c0 -14 2 -19 5 -12 2 6 2 18 0 25 -3 6 -5 1 -5 -13z"/>
<path d="M2431 310 c-1 -3 8 -30 19 -60 10 -30 19 -46 19 -35 0 18 -36 107
-38 95z"/>
<path d="M1543 260 c-13 -5 -23 -11 -23 -14 0 -8 30 0 42 12 14 14 11 14 -19
2z"/>
<path d="M1090 251 c0 -33 129 -177 199 -222 69 -44 72 -34 6 14 -71 51 -163
150 -177 190 -9 25 -28 38 -28 18z"/>
<path d="M1270 250 c-8 -5 -12 -12 -9 -15 4 -3 12 1 19 10 14 17 11 19 -10 5z"/>
<path d="M1450 213 c0 -19 21 -27 33 -13 9 10 9 11 -2 5 -8 -4 -17 -2 -22 6
-6 9 -9 10 -9 2z"/>
<path d="M1510 209 c0 -5 5 -7 10 -4 6 3 10 8 10 11 0 2 -4 4 -10 4 -5 0 -10
-5 -10 -11z"/>
<path d="M1105 165 c26 -42 124 -153 142 -159 7 -3 -21 34 -63 82 -95 107
-102 115 -79 77z"/>
<path d="M2471 178 c0 -7 10 -35 22 -61 21 -45 23 -47 42 -33 20 15 20 15 -1
10 -19 -5 -24 1 -39 45 -16 49 -26 64 -24 39z"/>
<path d="M1030 90 c0 -51 3 -90 7 -87 7 8 6 167 -2 175 -3 3 -5 -37 -5 -88z"/>
<path d="M2036 88 c-27 -50 -43 -88 -37 -84 12 8 95 166 89 171 -2 2 -25 -37
-52 -87z"/>
<path d="M750 139 c11 -37 17 -45 28 -34 4 4 1 10 -5 12 -7 3 -13 16 -13 29 0
13 -4 24 -9 24 -6 0 -6 -12 -1 -31z"/>
<path d="M2801 154 c0 -11 3 -14 6 -6 3 7 2 16 -1 19 -3 4 -6 -2 -5 -13z"/>
<path d="M2671 114 c0 -11 3 -14 6 -6 3 7 2 16 -1 19 -3 4 -6 -2 -5 -13z"/>
<path d="M2521 49 c-1 -8 6 -24 15 -35 15 -19 15 -19 6 1 -5 11 -12 27 -15 35
-5 13 -6 13 -6 -1z"/>
<path d="M2215 40 c-3 -5 -1 -10 4 -10 6 0 11 5 11 10 0 6 -2 10 -4 10 -3 0
-8 -4 -11 -10z"/>
</g>
</svg>
